<?xml version="1.0" encoding="UTF-8"?>
<svg version="1.1" xmlns="http://www.w3.org/2000/svg" width="512" height="512">
<path d="M0 0 C4.31950839 0.66048843 5.47147409 1.69303513 8.36738491 4.90400505 C9.25792568 5.87018761 10.14846645 6.83637016 11.06599331 7.83183098 C12.03164157 8.91636319 12.99719943 10.00097591 13.96267605 11.08566093 C14.99729669 12.21890513 16.03402614 13.35022711 17.07269192 14.47976494 C19.3116126 16.9171542 21.54169358 19.36224448 23.76723194 21.81185532 C27.32411757 25.71380432 30.93772787 29.55990467 34.56773281 33.39378166 C35.49089764 34.36918763 35.49089764 34.36918763 36.43271226 35.36429876 C38.33056238 37.36839165 40.22919946 39.37173655 42.12795925 41.37496758 C49.93818277 49.61647708 57.70226047 57.8872875 65.28835964 66.33614922 C72.6216751 74.48688398 80.09239783 82.48648096 87.79397488 90.2909832 C88.41521787 90.92109794 89.03646087 91.55121268 89.67652941 92.20042181 C106.05117663 108.6579837 120.26320368 119.24826077 144.08262539 119.72605705 C154.95276998 119.71224424 165.76508197 118.60524368 176.45438004 116.65376186 C177.15039165 116.61783397 177.84640326 116.58190607 178.56350613 116.54488945 C181.03377501 119.01515833 180.8138692 119.6969576 180.81518841 123.09579277 C180.82301165 124.54204159 180.82301165 124.54204159 180.83099294 126.01750755 C180.82430077 127.61757526 180.82430077 127.61757526 180.81747341 129.24996758 C180.82059339 130.37732574 180.82371337 131.50468391 180.8269279 132.66620445 C180.83494862 136.46956824 180.8285684 140.27277428 180.82229519 144.07613945 C180.82390236 146.79237005 180.82849037 149.50859381 180.83291531 152.22482109 C180.84182702 158.85204427 180.83987941 165.47922224 180.83409002 172.10644722 C180.82958051 177.49063553 180.82895754 182.87481113 180.83113766 188.25900078 C180.83144412 189.02415205 180.83175059 189.78930333 180.83206634 190.57764101 C180.83270577 192.13183848 180.83335419 193.68603595 180.83401152 195.24023342 C180.83972003 209.8275158 180.83314879 224.41477309 180.82241079 239.00205135 C180.81347481 251.52936413 180.8150267 264.05663984 180.82424831 276.58395195 C180.83494178 291.11762668 180.83917066 305.65127939 180.83302379 320.1849575 C180.83238666 321.73356437 180.83175792 323.28217125 180.83113766 324.83077812 C180.83082911 325.59280116 180.83052056 326.35482419 180.83020265 327.13993883 C180.82847294 332.5201263 180.83139676 337.90029984 180.83609676 343.28048515 C180.84169536 349.83359974 180.84021077 356.3866664 180.82953528 362.93977547 C180.82426469 366.28582298 180.82331465 369.63172389 180.82883358 372.9777813 C180.83425708 376.59853913 180.82749387 380.21906826 180.81747341 383.83981133 C180.82193485 384.90652313 180.8263963 385.97323494 180.83099294 387.07227135 C180.82577744 388.03643723 180.82056195 389.0006031 180.81518841 389.99398613 C180.8148637 390.83056503 180.814539 391.66714394 180.81420445 392.52907372 C180.56350613 394.54488945 180.56350613 394.54488945 178.56350613 396.54488945 C176.01759654 396.49783325 173.61057216 396.32496736 171.0864706 396.04951286 C169.45850199 395.8923297 167.83050323 395.7354586 166.20247936 395.57884884 C165.32628681 395.4907857 164.45009425 395.40272257 163.54735041 395.31199086 C135.80062888 392.56051776 107.9851245 391.01250012 80.12600613 389.98238945 C78.92185118 389.93688753 77.71769623 389.8913856 76.47705173 389.84450483 C18.29276024 387.72182342 -33.47113573 387.67511063 -78.10595185 428.91676468 C-86.83844098 437.16248148 -94.86559531 446.00180076 -102.68649387 455.10738945 C-103.27729032 455.79402467 -103.86808677 456.48065989 -104.47678614 457.18810225 C-114.9655638 469.42312613 -125.16331899 481.89538603 -134.49797153 495.03857231 C-134.92418354 495.63555028 -135.35039554 496.23252825 -135.78952307 496.84759647 C-137.76947178 499.62836882 -139.71282951 502.42106314 -141.61287689 505.25784779 C-142.28470284 506.22406339 -142.9565288 507.19027899 -143.64871311 508.18577385 C-144.21625938 509.03252458 -144.78380566 509.8792753 -145.3685503 510.75168514 C-147.43649387 512.54488945 -147.43649387 512.54488945 -150.87298775 513.0897789 C-155.19249614 512.42929047 -156.34446184 511.39674377 -159.24037266 508.18577385 C-160.13091343 507.21959129 -161.0214542 506.25340874 -161.93898106 505.25794792 C-162.90462932 504.17341571 -163.87018718 503.08880299 -164.8356638 502.00411797 C-165.87028444 500.87087377 -166.90701389 499.73955179 -167.94567966 498.61001396 C-170.18460035 496.1726247 -172.41468133 493.72753442 -174.64021969 491.27792358 C-178.19710531 487.37597458 -181.81071562 483.52987423 -185.44072056 479.69599724 C-186.05616378 479.0457266 -186.67160699 478.39545595 -187.3057 477.72548014 C-189.20355013 475.72138725 -191.10218721 473.71804235 -193.000947 471.71481133 C-200.81117052 463.47330182 -208.57524822 455.2024914 -216.16134739 446.75362968 C-223.49466285 438.60289492 -230.96538558 430.60329794 -238.66696262 422.7987957 C-239.28820562 422.16868096 -239.90944861 421.53856622 -240.54951715 420.88935709 C-256.92416438 404.4317952 -271.13619143 393.84151813 -294.95561314 393.36372185 C-305.82575773 393.37753466 -316.63806972 394.48453522 -327.32736778 396.43601704 C-328.3713852 396.48990888 -328.3713852 396.48990888 -329.43649387 396.54488945 C-331.90676275 394.07462057 -331.68685695 393.3928213 -331.68817616 389.99398613 C-331.69339165 389.02982025 -331.69860714 388.06565437 -331.70398068 387.07227135 C-331.69728852 385.47220364 -331.69728852 385.47220364 -331.69046116 383.83981133 C-331.69358114 382.71245316 -331.69670112 381.58509499 -331.69991565 380.42357445 C-331.70793636 376.62021066 -331.70155614 372.81700462 -331.69528294 369.01363945 C-331.69689011 366.29740885 -331.70147812 363.58118509 -331.70590305 360.86495781 C-331.71481477 354.23773463 -331.71286716 347.61055666 -331.70707777 340.98333168 C-331.70256826 335.59914337 -331.70194529 330.21496777 -331.7041254 324.83077812 C-331.70443187 324.06562685 -331.70473834 323.30047557 -331.70505409 322.51213789 C-331.70569351 320.95794042 -331.70634194 319.40374295 -331.70699927 317.84954548 C-331.71270777 303.2622631 -331.70613653 288.67500581 -331.69539854 274.08772755 C-331.68646255 261.56041477 -331.68801445 249.03313906 -331.69723606 236.50582695 C-331.70792953 221.97215222 -331.7121584 207.43849951 -331.70601153 192.9048214 C-331.70537441 191.35621453 -331.70474567 189.80760765 -331.7041254 188.25900078 C-331.70381685 187.49697774 -331.7035083 186.73495471 -331.7031904 185.94984007 C-331.70146068 180.5696526 -331.70438451 175.18947906 -331.70908451 169.80929375 C-331.7146831 163.25617916 -331.71319852 156.7031125 -331.70252302 150.15000343 C-331.69725244 146.80395592 -331.69630239 143.45805501 -331.70182133 140.1119976 C-331.70724482 136.49123977 -331.70048162 132.87071064 -331.69046116 129.24996758 C-331.6949226 128.18325577 -331.69938405 127.11654396 -331.70398068 126.01750755 C-331.69876519 125.05334167 -331.6935497 124.0891758 -331.68817616 123.09579277 C-331.68785145 122.25921387 -331.68752675 121.42263496 -331.6871922 120.56070518 C-331.43649387 118.54488945 -331.43649387 118.54488945 -329.43649387 116.54488945 C-326.89058429 116.59194565 -324.48355991 116.76481154 -321.95945835 117.04026604 C-320.33148974 117.1974492 -318.70349098 117.3543203 -317.07546711 117.51093006 C-315.76117828 117.64302476 -315.76117828 117.64302476 -314.42033815 117.77778804 C-286.67361663 120.52926114 -258.85811225 122.07727878 -230.99899387 123.10738945 C-229.79483892 123.15289137 -228.59068398 123.1983933 -227.35003948 123.24527407 C-169.16574799 125.36795548 -117.40185202 125.41466827 -72.7670359 84.17301422 C-64.03454677 75.92729742 -56.00739244 67.08797814 -48.18649387 57.98238945 C-47.59569743 57.29575423 -47.00490098 56.60911901 -46.39620161 55.90167665 C-35.90742395 43.66665277 -25.70966875 31.19439287 -16.37501621 18.05120659 C-15.94880421 17.45422862 -15.5225922 16.85725065 -15.08346468 16.24218243 C-13.10351597 13.46141008 -11.16015824 10.66871576 -9.26011086 7.83193111 C-8.5882849 6.86571551 -7.91645895 5.89949991 -7.22427464 4.90400505 C-6.65672836 4.05725432 -6.08918209 3.2105036 -5.50443745 2.33809376 C-3.43649387 0.54488945 -3.43649387 0.54488945 0 0 Z " fill="#93DA3E" transform="translate(331.4364938735962,-0.5448894500732422)"/>
<path d="M0 0 C1.7147901 -0.01080981 1.7147901 -0.01080981 3.46422243 -0.02183801 C4.72577764 -0.01446372 5.98733285 -0.00708944 7.287117 0.00050831 C8.636381 -0.00223077 9.98564287 -0.00628155 11.33489943 -0.01153535 C15.05072742 -0.02215341 18.76631596 -0.01397318 22.48213363 -0.00278485 C26.48627647 0.00603582 30.49038725 -0.00238016 34.49452972 -0.00864697 C42.34185393 -0.0181495 50.18908637 -0.01152242 58.03640378 0.00061598 C67.16847216 0.01421701 76.30051854 0.0125998 85.43259448 0.01048265 C101.72286598 0.00729063 118.0130938 0.01897262 134.30335236 0.03854847 C150.12270183 0.05755353 165.9420001 0.06463628 181.76136017 0.05905628 C198.97369006 0.05300293 216.18599742 0.05316742 233.39832544 0.06454211 C235.23255825 0.06574945 237.06679106 0.06695543 238.90102386 0.06816006 C240.2548593 0.06906537 240.2548593 0.06906537 241.63604495 0.06998896 C248.00663092 0.07387363 254.37720852 0.07347237 260.7477951 0.07157421 C268.50785375 0.06945538 276.26786748 0.07465257 284.02791345 0.08918776 C287.98974725 0.0964476 291.95151551 0.1004953 295.91335487 0.0959444 C299.53657227 0.09188362 303.15965404 0.09698862 306.7828508 0.10957048 C308.72206044 0.11390944 310.6612843 0.10839061 312.60049009 0.1025812 C314.3152802 0.11132949 314.3152802 0.11132949 316.06471252 0.12025452 C317.05529553 0.12112129 318.04587853 0.12198807 319.06647921 0.12288111 C321.53235626 0.37473011 321.53235626 0.37473011 324.53235626 2.37473011 C324.83313751 5.42941761 324.83313751 5.42941761 324.84485626 9.24973011 C325.15976731 18.39206031 328.00178296 26.47829096 334.84485626 32.87473011 C342.42483428 38.46084434 349.106257 39.82980235 358.49329376 40.00363636 C361.53235626 40.37473011 361.53235626 40.37473011 363.19848824 41.65639305 C365.54789209 44.68298011 364.94675528 48.50854111 364.92053986 52.18893909 C364.92842529 53.54058155 364.92842529 53.54058155 364.93647003 54.91952991 C364.94969274 57.90346999 364.94092313 60.88687818 364.93079376 63.87082386 C364.93281402 65.94203767 364.93572505 68.01325079 364.93949127 70.08446217 C364.94391785 74.42811312 364.93747342 78.77157915 364.92346954 83.11520863 C364.90638823 88.68514182 364.91621019 94.25464104 364.93418694 99.82455826 C364.9450248 104.10277548 364.94157821 108.38088975 364.93380356 112.65911007 C364.93180101 114.71283551 364.93426274 116.76657028 364.94124222 118.82028484 C364.94885544 121.69081741 364.93725364 124.56064646 364.92053986 127.43112659 C364.92661255 128.28165104 364.93268524 129.13217548 364.93894196 130.0084734 C364.90132713 133.49308367 364.84390639 135.78361566 363.20023346 138.90221119 C360.60160654 141.19646122 358.24362739 140.8821149 354.84485626 140.93723011 C343.96031431 141.47363464 338.05221212 144.32197108 330.53235626 152.37473011 C325.42940176 159.32820657 325.3615451 165.7810419 325.10657501 174.15988636 C324.53235626 177.37473011 324.53235626 177.37473011 322.84508431 179.05223721 C320.00397453 180.67687592 318.21873678 180.74964204 314.95448875 180.74946022 C313.24101212 180.76027003 313.24101212 180.76027003 311.4929198 180.77129823 C310.23748626 180.76392394 308.98205272 180.75654966 307.68857574 180.74895191 C306.34186079 180.75169186 304.99514798 180.75574339 303.64844048 180.76099557 C299.94434236 180.77160058 296.24048491 180.76344183 292.53639722 180.75224507 C288.54319783 180.7434164 284.55003039 180.75184264 280.55683136 180.75810719 C272.73337471 180.76760451 264.91001017 180.76098748 257.08656035 180.74884424 C247.98249159 180.73523834 238.87844488 180.73686081 229.77436854 180.73897757 C213.53563847 180.74216873 197.29695224 180.73049177 181.05823517 180.71091175 C165.28738826 180.69190077 149.51659272 180.68482568 133.74573517 180.69040394 C116.58468038 180.69645594 99.4236482 180.69629579 82.2625953 180.68491811 C80.43429383 180.68371077 78.60599236 180.68250478 76.77769089 180.68130016 C75.87805232 180.68069662 74.97841374 180.68009309 74.0515134 180.67947126 C67.69948173 180.67558548 61.34745846 180.67598826 54.99542618 180.67788601 C47.26024961 180.68000378 39.52511813 180.67481556 31.78995429 180.66027246 C27.84038896 180.65300803 23.89088944 180.64896881 19.94131851 180.65351582 C16.33052924 180.65757182 12.71987626 180.65248547 9.10910775 180.63988974 C7.17417728 180.63554335 5.23923255 180.64107479 3.30430591 180.64687902 C2.16720365 180.64104682 1.03010139 180.63521463 -0.14145851 180.6292057 C-1.1288414 180.62833893 -2.11622429 180.62747215 -3.13352787 180.62657911 C-5.46764374 180.37473011 -5.46764374 180.37473011 -7.46764374 178.37473011 C-7.67045428 176.1930681 -7.78121398 174.00243732 -7.84264374 171.81223011 C-8.21871996 165.47080695 -9.25434611 160.83188981 -12.46764374 155.37473011 C-12.81697968 154.7392223 -13.16631561 154.10371449 -13.52623749 153.44894886 C-17.48993872 147.04393683 -23.71414918 143.8683872 -30.90514374 142.12473011 C-35.04228641 141.33809031 -39.20100624 140.98140538 -43.40123749 140.71848011 C-45.46764374 140.37473011 -45.46764374 140.37473011 -47.46764374 138.37473011 C-47.67183594 135.34755835 -47.75077299 132.41149794 -47.74230194 129.38278675 C-47.74741287 128.4509708 -47.7525238 127.51915485 -47.75778961 126.55910206 C-47.77173132 123.46763215 -47.77072539 120.37638404 -47.76842499 117.28488636 C-47.77230943 115.14258713 -47.77664357 113.00028867 -47.78141022 110.85799122 C-47.78888231 106.36297582 -47.78857401 101.86803894 -47.78331757 97.37302113 C-47.77752197 91.6045684 -47.79445148 85.83643666 -47.81766224 80.06803703 C-47.83237384 75.64232463 -47.83327478 71.21668997 -47.83015251 66.79095745 C-47.83066703 64.66383128 -47.83592912 62.53670091 -47.84596443 60.40959835 C-47.8582615 57.43820769 -47.8515776 54.46744809 -47.83995819 51.496068 C-47.84760193 50.61232502 -47.85524567 49.72858204 -47.86312103 48.81805897 C-47.85610672 48.00906651 -47.84909241 47.20007404 -47.84186554 46.36656666 C-47.84203328 45.66399266 -47.84220102 44.96141867 -47.84237385 44.23755455 C-47.35248805 41.80227856 -46.3915668 40.89686075 -44.46764374 39.37473011 C-42.52233124 39.15207386 -42.52233124 39.15207386 -40.34264374 39.31223011 C-31.93813139 39.55741848 -25.08913759 37.66913131 -18.46764374 32.37473011 C-11.26401772 25.54595341 -8.92190808 18.11791714 -8.46764374 8.37473011 C-8.52307343 7.51105824 -8.57850311 6.64738636 -8.63561249 5.75754261 C-8.46764374 3.37473011 -8.46764374 3.37473011 -7.29887342 1.74922496 C-4.78620878 -0.13674523 -3.12713384 -0.00017368 0 0 Z " fill="#92DA3E" transform="translate(97.46764373779297,165.62526988983154)"/>
<path d="M0 0 C149.16 0 298.32 0 452 0 C452 72.6 452 145.2 452 220 C302.84 220 153.68 220 0 220 C0 147.4 0 74.8 0 0 Z M60.17218828 21.4018386 C58.64880511 23.47881908 58.75053136 24.58040238 58.9375 27.125 C59.18268837 35.52951235 57.2944012 42.37850615 52 49 C45.8582033 55.4789359 38.87570499 58.52918657 30 59 C28.741875 58.95875 27.48375 58.9175 26.1875 58.875 C23.07614195 58.69445616 23.07614195 58.69445616 21.32417011 60.25832272 C19.72585587 62.36058102 19.62515349 63.37528258 19.6257782 65.99183655 C19.61876389 66.80082901 19.61174957 67.60982147 19.60452271 68.44332886 C19.61216644 69.32707184 19.61981018 70.21081482 19.62768555 71.12133789 C19.62403488 72.05490616 19.62038422 72.98847443 19.61662292 73.95033264 C19.60850585 77.04129126 19.62213627 80.13172759 19.63671875 83.22265625 C19.63723717 85.36592102 19.63672016 87.50918627 19.63520813 89.65245056 C19.6352979 94.14573254 19.64573854 98.63883528 19.66381836 103.13208008 C19.68651927 108.90167538 19.68704768 114.67100896 19.68030071 120.44063663 C19.67696516 124.86631104 19.68358278 129.29192539 19.69342995 133.71758842 C19.69728836 135.84553145 19.69842752 137.97348115 19.6968441 140.10142708 C19.69647473 143.07043399 19.70905733 146.03910066 19.7253418 149.00805664 C19.72286438 149.89382385 19.72038696 150.77959106 19.71783447 151.69219971 C19.54100773 156.32639813 19.54100773 156.32639813 22 160 C24.53272221 160.36892832 27.0172587 160.64820489 29.5625 160.875 C38.13471861 161.79403202 45.70612662 163.70612662 52 170 C57.88415805 177.99422056 59.24126007 185.11786364 59.65625 194.953125 C59.69149313 198.10707704 59.69149313 198.10707704 62 200 C64.43863939 200.30500196 64.43863939 200.30500196 67.32618523 200.25447559 C68.46328749 200.26030779 69.60038975 200.26613998 70.77194965 200.27214891 C72.03184463 200.26836958 73.29173961 200.26459026 74.58981323 200.26069641 C75.93337566 200.26371443 77.27693637 200.26760214 78.62049401 200.27228898 C82.32519527 200.28262307 86.02980035 200.28037349 89.73450971 200.27610838 C93.72505582 200.27365089 97.71557819 200.28264315 101.70611572 200.29014587 C109.52915635 200.30292257 117.35216271 200.30468285 125.17521201 200.30234561 C131.53192345 200.30056547 137.88862444 200.30230554 144.24533463 200.30657005 C145.60034746 200.30746284 145.60034746 200.30746284 146.9827343 200.30837366 C148.81765031 200.30958536 150.65256632 200.31079949 152.48748232 200.31201603 C169.71204003 200.32290317 186.93657818 200.32072363 204.161137 200.31463119 C219.93019028 200.3094619 235.69918178 200.3207157 251.46822284 200.33972941 C267.64556886 200.35908642 283.82288562 200.36736751 300.00024331 200.36360615 C309.08829602 200.36169074 318.17629615 200.36421461 327.26433945 200.37832069 C335.00171184 200.39020835 342.73899931 200.39166895 350.47637282 200.37953053 C354.42620722 200.37362315 358.37588607 200.37259335 362.3257103 200.38453293 C365.93919903 200.3953291 369.5524012 200.39236384 373.16587617 200.37827124 C375.09744425 200.37434138 377.02902477 200.38522246 378.96056354 200.39656812 C380.67404017 200.3857583 380.67404017 200.3857583 382.42213249 200.37473011 C383.40984009 200.37478513 384.39754768 200.37484014 385.41518581 200.37489682 C388.45380627 199.93418075 389.83028065 199.15146378 392 197 C392.59291164 193.85055916 392.59291164 193.85055916 392.5625 190.3125 C393.09890453 179.42795805 395.94724097 173.51985586 404 166 C410.95347646 160.8970455 417.40631179 160.82918883 425.78515625 160.57421875 C428.95816699 160.29429047 428.95816699 160.29429047 430.67666626 158.52308655 C432.65677473 154.74778414 432.41819627 151.25988869 432.38818359 147.05639648 C432.39344055 146.15354919 432.39869751 145.2507019 432.40411377 144.32049561 C432.41731419 141.33718552 432.4085762 138.35440923 432.3984375 135.37109375 C432.40045804 133.29891355 432.40336932 131.22673404 432.40713501 129.15455627 C432.41155827 124.81268541 432.40512648 120.47099973 432.39111328 116.12915039 C432.37401083 110.55802667 432.38386941 104.98733617 432.40183067 99.41622829 C432.41265928 95.13805361 432.40922658 90.85998203 432.4014473 86.58180428 C432.39944329 84.52725231 432.40191157 82.47269105 432.40888596 80.41814995 C432.41648636 77.54991641 432.40491646 74.68238973 432.38818359 71.81420898 C432.39729263 70.53538597 432.39729263 70.53538597 432.40658569 69.23072815 C432.48333327 64.9696251 432.48333327 64.9696251 430.65954018 61.27726841 C428.09439519 59.30299945 425.74871396 59.69815623 422.5625 59.6875 C413.61899268 59.21581554 405.7209971 56.35951939 399.5 49.6875 C398.17578125 47.88671875 398.17578125 47.88671875 397 46 C396.60167969 45.36707031 396.20335937 44.73414063 395.79296875 44.08203125 C392.56994468 38.01181278 392.48558398 31.88814094 392.37109375 25.16015625 C392.24863281 24.11730469 392.12617188 23.07445312 392 22 C388.61895381 19.74596921 387.49116307 19.74898843 383.53235626 19.74552441 C381.81756616 19.73677612 381.81756616 19.73677612 380.06813383 19.72785109 C378.17580102 19.73352008 378.17580102 19.73352008 376.24523926 19.73930359 C374.89597629 19.73628463 373.54671504 19.73239644 372.19745684 19.72771102 C368.48168277 19.71738941 364.76600473 19.71962336 361.05022264 19.72389162 C357.04607989 19.72635129 353.04196073 19.71735419 349.03782654 19.70985413 C341.19052667 19.69708433 333.34326099 19.69531623 325.49595249 19.69765439 C319.12018697 19.69943501 312.74443187 19.69769341 306.3686676 19.69342995 C305.46239712 19.69283476 304.55612663 19.69223957 303.6223934 19.69162634 C301.78151619 19.69041464 299.94063899 19.6892005 298.09976178 19.68798397 C280.82420242 19.67709983 263.54866257 19.67927517 246.2731021 19.68536881 C230.45493798 19.69053987 214.6368354 19.67927911 198.81868345 19.66027059 C182.59046006 19.64091822 166.36226583 19.63263154 150.13403082 19.63639385 C141.01752033 19.63830971 131.90106226 19.63578091 122.78456116 19.62167931 C115.02449385 19.60979768 107.26451121 19.60832433 99.50444281 19.62046947 C95.54257393 19.62638065 91.58086017 19.62739623 87.61900139 19.61546707 C83.99573613 19.60468385 80.37275691 19.60762037 76.74950546 19.62172876 C74.81028677 19.62566548 72.87105573 19.6147672 70.93186617 19.60343188 C69.21707607 19.6142417 69.21707607 19.6142417 67.46764374 19.62526989 C66.47706073 19.62521487 65.48647773 19.62515986 64.46587706 19.62510318 C61.95030604 19.80471992 61.95030604 19.80471992 60.17218828 21.4018386 Z " fill="#318F22" transform="translate(30,146)"/>
<path d="M0 0 C15.36887677 15.4171307 23.73607674 34.6758979 24.05078125 56.43359375 C23.88943034 77.74474842 15.04211326 95.35343284 0.40625 110.67578125 C-10.20623539 120.79603633 -22.64145712 125.67151273 -36.51171875 129.49609375 C-37.50171875 129.82609375 -38.49171875 130.15609375 -39.51171875 130.49609375 C-63.68050205 132.26381668 -84.2718864 126.70446277 -102.91796875 110.88671875 C-117.81622587 97.15519261 -125.34543641 78.54544688 -126.43579102 58.57788086 C-127.15418088 37.03390962 -119.31221872 18.348163 -104.76855469 2.70751953 C-92.57538113 -9.89596136 -74.81404665 -18.2946157 -57.2578125 -19.4765625 C-35.66139705 -19.69160504 -16.53988493 -14.48181123 0 0 Z " fill="#308E21" transform="translate(307.51171875,200.50390625)"/>
<path d="M0 0 C2.65733242 1.79320431 2.65733242 1.79320431 5.20762634 4.3591156 C5.68321584 4.82801856 6.15880533 5.29692151 6.64880663 5.78003365 C8.2333997 7.35078762 9.79173983 8.94520759 11.35131836 10.54077148 C12.48384586 11.67363655 13.61790936 12.80496784 14.75338745 13.93487549 C17.8287569 17.00396698 20.88199946 20.09424721 23.93160319 23.18891406 C27.12375972 26.42111661 30.33535721 29.63388539 33.54481506 32.84889221 C38.9285492 38.24733712 44.29941726 43.65829977 49.66137695 49.07836914 C57.23394863 56.73296596 64.82930037 64.36464023 72.42939174 71.99190032 C78.3205394 77.90565632 84.20586096 83.82520997 90.08984375 89.74609375 C90.72305817 90.38321376 91.3562726 91.02033376 92.00867534 91.67676044 C95.63992248 95.3312826 99.26815347 98.98875387 102.89188766 102.65072632 C103.99241275 103.76220795 105.09378368 104.87285277 106.19603539 105.98262215 C107.69349799 107.49070748 109.18781536 109.00183708 110.68125916 110.51390076 C111.52021697 111.36102851 112.35917479 112.20815626 113.22355556 113.08095455 C115 115 115 115 115 116 C106.79382978 116.54026018 98.59539906 116.94494343 90.37568569 117.19167995 C86.55506653 117.31032134 82.74682608 117.46994945 78.93334961 117.73510742 C52.65332175 119.5153802 52.65332175 119.5153802 43.60904217 112.2973814 C37.81791637 107.18896265 32.87612871 101.36624426 28.24598694 95.20204163 C25.49967259 92.50946207 23.80244351 92.11762528 20 92 C17.90611879 93.47188138 17.90611879 93.47188138 16.25 95.6875 C10.65601773 101.74853202 4.65299736 104.13282693 -3.5625 104.5 C-13.59743889 104.06185478 -20.12050944 98.87949056 -27 92 C-29.39683343 91.47825688 -29.39683343 91.47825688 -32 92 C-33.85481249 94.25338655 -33.85481249 94.25338655 -35.41796875 97.25 C-40.8714877 105.37236496 -46.51637067 112.54555987 -56 116 C-67.32961363 118.16730054 -79.01653439 117.80876092 -90.5 117.5 C-91.65350763 117.46918335 -91.65350763 117.46918335 -92.83031845 117.43774414 C-102.56668339 117.15872686 -112.28248757 116.66949273 -122 116 C-116.80847942 109.72986617 -111.15575134 103.97333354 -105.42407227 98.19946289 C-104.36051127 97.12470641 -103.2971103 96.04979154 -102.2338562 94.97473145 C-98.76542038 91.47001634 -95.29155599 87.97071281 -91.81640625 84.47265625 C-91.22385253 83.87615666 -90.6312988 83.27965707 -90.02078891 82.66508174 C-84.42866145 77.03658952 -78.83405594 71.41056874 -73.23439121 65.78957462 C-66.08661976 58.61416295 -58.95075723 51.42733372 -51.83020169 44.2249108 C-46.81206493 39.15104472 -41.78064133 34.0905993 -36.73918957 29.03989977 C-33.73159184 26.02604281 -30.73022601 23.00653341 -27.74307442 19.97239876 C-24.9370762 17.12280454 -22.11501915 14.2901672 -19.27975082 11.46970367 C-18.24287393 10.43249768 -17.21196924 9.38928134 -16.18760872 8.33971214 C-14.78785784 6.90735246 -13.36417907 5.49849316 -11.93946838 4.09095764 C-10.75513135 2.89889001 -10.75513135 2.89889001 -9.54686832 1.68274021 C-6.09094704 -0.60061997 -4.06771352 -0.61086907 0 0 Z " fill="#87BE47" transform="translate(335,0)"/>
<path d="M0 0 C10.32729751 -0.72321695 20.65162197 -1.21917003 31 -1.5 C31.75221329 -1.52054443 32.50442657 -1.54108887 33.2794342 -1.56225586 C65.82493273 -2.34914457 65.82493273 -2.34914457 76.2779541 6.93713379 C80.64279461 11.3411472 84.22545228 16.40080405 87.26074219 21.796875 C88.81063718 24.27180663 88.81063718 24.27180663 91.60717773 24.41503906 C94.5855106 23.8984422 95.38043399 23.03204322 97.3125 20.75 C101.80119945 15.89788287 107.69111134 12.43088887 114.3828125 11.76171875 C123.50624236 11.51478831 129.48138594 13.53881508 136.25 19.6875 C136.85328125 20.28949219 137.4565625 20.89148438 138.078125 21.51171875 C140.45785641 23.35455954 142.00855012 23.74130946 145 24 C149.70020947 21.35951077 153.15693063 16.92801442 156.30249023 12.63500977 C161.04685343 6.41079773 165.7668285 1.05382326 173.59844971 -0.89581299 C182.97582107 -2.0315138 192.34961155 -1.6424308 201.76239014 -1.16729736 C205.62969127 -0.9910958 209.49895497 -0.91527861 213.36914062 -0.83007812 C220.91802429 -0.64954476 228.45734972 -0.36083778 236 0 C230.80847942 6.27013383 225.15575134 12.02666646 219.42407227 17.80053711 C218.36051127 18.87529359 217.2971103 19.95020846 216.2338562 21.02526855 C212.76542038 24.52998366 209.29155599 28.02928719 205.81640625 31.52734375 C205.22385253 32.12384334 204.6312988 32.72034293 204.02078891 33.33491826 C198.42866145 38.96341048 192.83405594 44.58943126 187.23439121 50.21042538 C180.08661976 57.38583705 172.95075723 64.57266628 165.83020169 71.7750892 C160.81206493 76.84895528 155.78064133 81.9094007 150.73918957 86.96010023 C147.73159184 89.97395719 144.73022601 92.99346659 141.74307442 96.02760124 C138.9370762 98.87719546 136.11501915 101.7098328 133.27975082 104.53029633 C132.24287393 105.56750232 131.21196924 106.61071866 130.18760872 107.66028786 C128.78785784 109.09264754 127.36417907 110.50150684 125.93946838 111.90904236 C124.75513135 113.10110999 124.75513135 113.10110999 123.54686832 114.31725979 C120.09254625 116.59956335 118.06577351 116.60775839 114 116 C111.35828495 114.22520638 111.35828495 114.22520638 108.83033752 111.68557739 C108.35883158 111.22146356 107.88732564 110.75734972 107.40153164 110.27917182 C105.83076547 108.72457938 104.28624094 107.14632121 102.74047852 105.56689453 C101.61779449 104.44551052 100.49358325 103.32565373 99.3679657 102.20721436 C96.31935943 99.16915565 93.29295251 96.10982571 90.2703259 93.0459466 C87.10590126 89.84519277 83.92243243 86.66349027 80.74119568 83.47946167 C75.40435335 78.13248208 70.08072129 72.77264278 64.76586914 67.40380859 C57.93621738 60.50490363 51.08589845 53.62691624 44.22857761 46.75552559 C38.33970934 40.85439264 32.45960489 34.94455011 26.58131671 29.03288031 C24.68773569 27.12912221 22.79309692 25.22642121 20.89837837 23.32379532 C17.92775108 20.33952354 14.96260688 17.34990606 12.00171089 14.35597992 C10.91173802 13.25533567 9.82005579 12.15638131 8.7265892 11.05920792 C7.23993348 9.56685128 5.75957261 8.06852953 4.28077698 6.56838989 C3.44919351 5.72955828 2.61761003 4.89072666 1.76082706 4.02647591 C0 2 0 2 0 0 Z " fill="#68A71E" transform="translate(63,396)"/>
<path d="M0 0 C22.77 0 45.54 0 69 0 C68.39278079 3.64331526 67.78476476 7.21361787 67 10.8125 C66.835 11.58207031 66.67 12.35164062 66.5 13.14453125 C66 15 66 15 65 16 C62.64686445 16.07271741 60.29166332 16.08370868 57.9375 16.0625 C56.64714844 16.05347656 55.35679687 16.04445312 54.02734375 16.03515625 C53.02832031 16.02355469 52.02929688 16.01195312 51 16 C51.2165625 16.54269531 51.433125 17.08539063 51.65625 17.64453125 C51.9346875 18.35996094 52.213125 19.07539063 52.5 19.8125 C52.7784375 20.52019531 53.056875 21.22789062 53.34375 21.95703125 C54 24 54 24 54 27 C58.95 27 63.9 27 69 27 C67.83672541 32.40091774 66.57704144 37.70564659 65 43 C61.37 43 57.74 43 54 43 C53.9175 43.825 53.835 44.65 53.75 45.5 C52.10679862 53.16827313 48.30612315 59.27614048 42 64 C38.42133277 65.90990866 34.7745557 67.51884523 31 69 C32.44165607 73.43899752 34.88761338 76.503205 37.9375 79.9375 C42.08609507 84.71851979 46.10308285 89.57383952 50 94.5625 C50.45624756 95.14572021 50.91249512 95.72894043 51.38256836 96.32983398 C52.59314139 97.88285537 53.79686534 99.44120898 55 101 C55.598125 101.75152344 56.19625 102.50304687 56.8125 103.27734375 C58 105 58 105 58 107 C35.31174169 109.20297856 35.31174169 109.20297856 28.72070312 105.83544922 C25.07136132 102.80126519 22.63805472 98.97975245 20.21972656 94.93701172 C18.25168252 91.81161911 15.8116208 89.1386953 13.375 86.375 C12.4785917 85.29843517 11.58404026 84.22032135 10.69140625 83.140625 C8.90672899 81.01236301 7.05193071 79.01224195 5.08984375 77.046875 C0.5010907 72.30463607 -2.49317164 68.54408739 -2.67895508 61.81982422 C-2.60176995 58.85884896 -2.3613532 55.93900602 -2 53 C-1.42556152 52.98541748 -0.85112305 52.97083496 -0.25927734 52.95581055 C2.36945696 52.88086275 4.99698552 52.78436006 7.625 52.6875 C8.52863281 52.66494141 9.43226563 52.64238281 10.36328125 52.61914062 C15.56450794 52.41033225 19.61732241 52.08629998 24 49 C25.32 47.02 26.64 45.04 28 43 C17.44 43 6.88 43 -4 43 C-3 34 -3 34 -1 27 C8.24 27 17.48 27 27 27 C22.14745926 22.14745926 19.21024912 20.81151673 12.48046875 20.5859375 C11.45888672 20.54726562 10.43730469 20.50859375 9.38476562 20.46875 C7.80211914 20.42234375 7.80211914 20.42234375 6.1875 20.375 C5.11306641 20.33632812 4.03863281 20.29765625 2.93164062 20.2578125 C0.28792912 20.16381387 -2.3557805 20.07815427 -5 20 C-4.35737498 17.04093596 -3.7110539 14.08276484 -3.0625 11.125 C-2.78889648 9.86236328 -2.78889648 9.86236328 -2.50976562 8.57421875 C-2.33251953 7.76855469 -2.15527344 6.96289062 -1.97265625 6.1328125 C-1.81031494 5.38918457 -1.64797363 4.64555664 -1.48071289 3.87939453 C-1 2 -1 2 0 0 Z " fill="#94DB41" transform="translate(223,204)"/>
<path d="M0 0 C5.03570033 4.2201177 9.76690718 8.623029 14.40405273 13.2746582 C15.107332 13.97618515 15.81061127 14.6777121 16.53520203 15.40049744 C18.83717186 17.69809902 21.13550405 19.9992992 23.43359375 22.30078125 C25.03770074 23.90421421 26.64195612 25.50749874 28.24635315 27.11064148 C31.59579454 30.45861311 34.94343145 33.80837584 38.28979492 37.15942383 C42.58967172 41.46502521 46.89405933 45.76608479 51.19978237 50.06583881 C54.50683325 53.36928814 57.81151355 56.6751006 61.11546516 59.9816494 C62.70284585 61.56969905 64.29097489 63.15700101 65.87985039 64.74355507 C68.08955736 66.95073921 70.29606198 69.16107421 72.50170898 71.37231445 C73.16396484 72.03254608 73.8262207 72.69277771 74.50854492 73.37301636 C79 77.88573222 79 77.88573222 79 79 C59.10875912 82.59104035 59.10875912 82.59104035 51.28082275 77.98937988 C45.99507066 74.10119229 41.65262312 69.21998634 37.38842773 64.26928711 C36.70716072 63.4800032 36.70716072 63.4800032 36.01213074 62.67477417 C34.77480813 61.21356031 33.57599247 59.71999059 32.37988281 58.22485352 C29.54426831 55.57395538 27.84268711 55.11536017 24 55 C21.90611879 56.47188138 21.90611879 56.47188138 20.25 58.6875 C14.65601773 64.74853202 8.65299736 67.13282693 0.4375 67.5 C-9.59743889 67.06185478 -16.12050944 61.87949056 -23 55 C-25.33679306 54.47687952 -25.33679306 54.47687952 -28 55 C-30.49714936 57.23103956 -30.49714936 57.23103956 -32.82421875 60.25 C-33.76317503 61.35003732 -34.70739967 62.44559481 -35.65625 63.53710938 C-36.14996094 64.10582764 -36.64367187 64.6745459 -37.15234375 65.26049805 C-49.62144536 79.38937034 -49.62144536 79.38937034 -59.36328125 80.59375 C-65.65264903 80.75696668 -71.82217649 80.17300446 -78 79 C-73.77769687 73.95972788 -69.37012184 69.23088402 -64.70947266 64.59594727 C-64.00633942 63.892668 -63.30320618 63.18938873 -62.57876587 62.46479797 C-60.27622958 60.16295302 -57.97018187 57.86466098 -55.6640625 55.56640625 C-54.05816139 53.96237208 -52.4524823 52.3581156 -50.84701538 50.75364685 C-46.63740446 46.5478393 -42.42479819 42.34504457 -38.21154785 38.1428833 C-33.90613569 33.84773228 -29.6035814 29.54972054 -25.30078125 25.25195312 C-16.86997228 16.83184299 -8.43599416 8.41491493 0 0 Z " fill="#387A2D" transform="translate(331,37)"/>
<path d="M0 0 C8.65484607 -1.6433252 19.81777748 -3.7081827 27.77056885 1.06201172 C33.28690712 5.17264291 37.85161571 10.28828619 42.34375 15.46289062 C42.82269211 16.01384399 43.30163422 16.56479736 43.79508972 17.13244629 C45.10349481 18.66531259 46.37393698 20.23034685 47.6418457 21.796875 C49.80024169 24.22808167 49.80024169 24.22808167 52.69287109 24.41503906 C55.60269091 23.89157941 56.42052577 22.98468916 58.3125 20.75 C62.80119945 15.89788287 68.69111134 12.43088887 75.3828125 11.76171875 C84.50624236 11.51478831 90.48138594 13.53881508 97.25 19.6875 C97.85328125 20.28949219 98.4565625 20.89148438 99.078125 21.51171875 C101.45719036 23.35404375 103.009599 23.74090992 106 24 C110.71352741 21.33388562 114.25473219 16.78784583 117.5859375 12.59765625 C127.12816228 0.90265098 127.12816228 0.90265098 134.32177734 -0.77441406 C141.91904573 -1.47160209 149.44560735 -0.96270371 157 0 C152.77769687 5.04027212 148.37012184 9.76911598 143.70947266 14.40405273 C143.00633942 15.107332 142.30320618 15.81061127 141.57876587 16.53520203 C139.27622958 18.83704698 136.97018187 21.13533902 134.6640625 23.43359375 C133.05816139 25.03762792 131.4524823 26.6418844 129.84701538 28.24635315 C125.63740446 32.4521607 121.42479819 36.65495543 117.21154785 40.8571167 C112.90613569 45.15226772 108.6035814 49.45027946 104.30078125 53.74804688 C95.86997228 62.16815701 87.43599416 70.58508507 79 79 C74.54552073 75.26482667 70.27733781 71.42376391 66.17578125 67.30517578 C65.63980316 66.77095001 65.10382507 66.23672424 64.55160522 65.68630981 C62.80273508 63.94179532 61.05749525 62.19370229 59.3125 60.4453125 C58.08388591 59.21737335 56.85512352 57.98958257 55.6262207 56.76193237 C53.05940753 54.19658775 50.49439667 51.6294583 47.93066406 49.06103516 C44.66278119 45.78746159 41.3904367 42.51839074 38.11671448 39.25065804 C35.58055784 36.71813496 33.04681248 34.18321016 30.51376343 31.64757919 C29.30896153 30.44211543 28.10343086 29.23737955 26.89712524 28.03342056 C15.49931143 16.65291858 15.49931143 16.65291858 10.34422302 10.54304504 C8.42484056 8.33976959 6.28646925 6.45192345 4.0625 4.5625 C2.69226957 3.39357221 1.33256161 2.21169434 0 1 C0 0.67 0 0.34 0 0 Z " fill="#135408" transform="translate(102,396)"/>
<path d="M0 0 C6.09150458 0.11625009 10.83114793 3.19639982 15.20703125 7.2421875 C20.77011124 13.26202564 23.95275924 19.28826961 23.66015625 27.62109375 C22.41977455 34.84811108 18.93825501 41.47735379 13.125 46 C6.11915637 50.72786993 -0.52276658 51.16880478 -8.8125 50.375 C-16.21158262 48.34602332 -21.32076254 42.75090237 -25.75 36.75 C-28.00442842 29.58887443 -27.98582805 21.0670116 -24.84765625 14.1484375 C-21.14220817 7.80023588 -16.73182706 3.91394662 -9.8125 1.375 C-6.5215597 0.55226493 -3.37834821 0.33229655 0 0 Z " fill="#328F22" transform="translate(398.8125,230.625)"/>
<path d="M0 0 C5.71179821 5.03182223 10.15464755 9.73476747 10.9609375 17.58203125 C11.05773097 26.36119873 10.63000096 31.98276923 4.6015625 38.5 C-1.2446147 44.0867905 -6.12003303 46.23478793 -14.1875 46.75 C-21.00733149 46.57380375 -26.4123986 43.93010345 -31.48828125 39.4453125 C-37.29824487 33.26245266 -38.82817969 27.16924485 -38.625 18.80078125 C-37.97597018 12.34090634 -35.31576245 6.63109236 -30.375 2.3125 C-20.7321215 -4.28244463 -10.65775825 -5.32887913 0 0 Z " fill="#318F22" transform="translate(129.375,234.6875)"/>
<path d="M0 0 C34.65 0 69.3 0 105 0 C100.2930211 5.49147538 95.55361704 10.72368562 90.5 15.875 C89.39978516 17.03128906 89.39978516 17.03128906 88.27734375 18.2109375 C85.16094538 21.37751044 82.8912551 23.67638328 78.67578125 25.20703125 C76 25 76 25 74.19921875 23.70703125 C73.45091797 22.76923828 73.45091797 22.76923828 72.6875 21.8125 C68.98361992 17.67043767 65.12307948 15.9407185 60 14 C59.34 13.67 58.68 13.34 58 13 C49.32929907 12.09587563 42.61955784 13.40788202 35.69921875 18.7890625 C33.38677352 20.7852408 31.15978288 22.84021712 29 25 C26.79614258 25.38842773 26.79614258 25.38842773 24 25 C21.87125281 23.31954832 20.11946111 21.72726734 18.26171875 19.78515625 C17.73608841 19.25482285 17.21045807 18.72448944 16.66889954 18.17808533 C14.99639696 16.48425874 13.34234064 14.77356726 11.6875 13.0625 C10.555136 11.91362876 9.42168404 10.76582877 8.28710938 9.61914062 C0 1.19541227 0 1.19541227 0 0 Z " fill="#67A61E" transform="translate(128,396)"/>
<path d="M0 0 C1.73828125 1.390625 1.73828125 1.390625 3.3125 3.25 C7.79070919 8.09077755 13.67130429 11.56064819 20.34765625 12.23828125 C27.26959144 12.42751401 33.0067867 11.63980508 39 8 C41.17247026 5.93595963 43.12769235 3.83821983 45.015625 1.51171875 C47 0 47 0 49.77294922 0.0871582 C53.72576609 1.20529879 55.85948504 3.20363594 58.6171875 6.09375 C59.37021652 6.85383362 59.37021652 6.85383362 60.13845825 7.62927246 C61.7293971 9.24146685 63.30181746 10.87049483 64.875 12.5 C65.95462538 13.59614034 67.03534402 14.69120502 68.1171875 15.78515625 C76 23.80425453 76 23.80425453 76 25 C41.35 25 6.7 25 -29 25 C-24.12091715 19.30773668 -19.18075945 13.9003876 -13.9375 8.5625 C-13.14794922 7.73556641 -12.35839844 6.90863281 -11.54492188 6.05664062 C-10.3915332 4.88584961 -10.3915332 4.88584961 -9.21484375 3.69140625 C-8.52511475 2.98185791 -7.83538574 2.27230957 -7.12475586 1.54125977 C-4.52428781 -0.34507309 -3.14627732 -0.4261198 0 0 Z " fill="#86BD46" transform="translate(308,91)"/>
</svg>
