<?xml version="1.0" encoding="UTF-8"?>
<svg version="1.1" xmlns="http://www.w3.org/2000/svg" width="512" height="512">
<path d="M0 0 C0 8.25 0 16.5 0 25 C35.64 25 71.28 25 108 25 C108 17.41 108 9.82 108 2 C111 -3 111 -3 114 -4 C125.82420338 -5.81051129 147.45085616 -8.4596079 158 -2 C159.44441346 0.88882692 159.01837977 3.33220153 158.9296875 6.5546875 C157.98426078 21.46853513 157.98426078 21.46853513 162.125 35.23046875 C164.91802615 38.1068096 167.85940574 40.51287113 171 43 C172.94745125 45.17181824 174.68992801 47.47848165 176.4375 49.8125 C177.35244974 51.00002273 178.26913197 52.18621256 179.1875 53.37109375 C179.64769531 53.96776855 180.10789062 54.56444336 180.58203125 55.17919922 C182.50348004 57.64651414 184.46748424 60.078221 186.43237305 62.51098633 C192.16740582 69.6134965 197.69003342 76.85346702 203.140625 84.17578125 C205.6809444 87.58520191 208.26910254 90.95293612 210.875 94.3125 C216.79793306 101.98862124 222.53693434 109.79767355 228.25927734 117.62402344 C229.86014181 119.80910239 231.46999878 121.98721891 233.08203125 124.1640625 C240.13333053 133.74292896 246.81847599 143.55749806 253.4375 153.4375 C254.08395477 154.39808823 254.08395477 154.39808823 254.74346924 155.37808228 C255.99963462 157.24727819 257.24882845 159.1209503 258.49609375 160.99609375 C259.21982178 162.08075928 259.9435498 163.1654248 260.68920898 164.28295898 C261.04893295 164.86888824 261.40865692 165.4548175 261.77928162 166.0585022 C263.00858184 168.06952551 263.00858184 168.06952551 264.59095764 170.14047241 C270.77526499 179.42836157 269.81535936 189.44765663 269.69140625 200.171875 C269.68782364 202.2244643 269.68647289 204.27705859 269.6872406 206.32965088 C269.68256897 210.61315084 269.65787394 214.89589044 269.61743164 219.17919922 C269.56633499 224.65898301 269.55499367 230.13793717 269.55726719 235.61793137 C269.55645029 239.84911967 269.53998018 244.08012807 269.51826286 248.31125641 C269.50874619 250.33178601 269.50281081 252.35233588 269.50058174 254.37288666 C269.49405152 257.1965336 269.46774025 260.01931399 269.43579102 262.84277344 C269.43715057 263.6699437 269.43851013 264.49711395 269.43991089 265.34934998 C269.32992362 272.02204105 267.98641428 276.71562358 263.5 281.875 C259.50065661 285.27444188 256.36234757 285.12685455 251.27572918 285.13422108 C250.23994855 285.13774942 250.23994855 285.13774942 249.18324307 285.14134905 C246.85226423 285.14804521 244.52134105 285.14758064 242.19035339 285.14717102 C240.50912097 285.15046925 238.82788934 285.15419473 237.14665872 285.1583125 C232.51317714 285.16834506 227.87970851 285.1720513 223.24621761 285.17470181 C218.25428329 285.17860107 213.26235927 285.18817957 208.27043152 285.19691467 C196.20925994 285.2166884 184.14808752 285.22674583 172.08690378 285.23564246 C166.41084883 285.24002333 160.73479482 285.24539061 155.05874062 285.25063133 C136.19739443 285.26764349 117.33604884 285.28213898 98.47469616 285.28938007 C93.57875251 285.29129005 88.68280887 285.29321037 83.78686523 285.29516602 C82.56996477 285.29564976 81.35306431 285.2961335 80.09928808 285.2966319 C60.37413098 285.30493711 40.64903443 285.33028238 20.92390379 285.36274669 C0.68525652 285.39578543 -19.55335994 285.41382589 -39.79203433 285.41702431 C-51.16052071 285.41919222 -62.52891877 285.42798199 -73.89737892 285.45348549 C-83.57655076 285.47514888 -93.25561282 285.4832644 -102.93480615 285.47351871 C-107.87528121 285.46896151 -112.81552957 285.47094246 -117.75597382 285.49028015 C-122.2768812 285.50782331 -126.797395 285.50698649 -131.31830605 285.49138286 C-132.95559834 285.48899329 -134.59291725 285.49339976 -136.23016868 285.50521151 C-138.45332867 285.52025943 -140.67508117 285.51070905 -142.89820576 285.49498463 C-144.75145968 285.49644984 -144.75145968 285.49644984 -146.64215308 285.49794465 C-151.85726402 284.72458105 -154.91902053 282.22929545 -158.34066772 278.33818054 C-160.5239677 273.94590203 -160.57694034 270.42927922 -160.54931641 265.58911133 C-160.55953827 264.65980804 -160.56976013 263.73050476 -160.58029175 262.77304077 C-160.60802838 259.70910673 -160.60617371 256.64607574 -160.6015625 253.58203125 C-160.60934182 251.44219125 -160.61801228 249.30235432 -160.62753296 247.16252136 C-160.64244713 242.67782587 -160.64188427 238.19344524 -160.63134766 233.70874023 C-160.6197842 227.98340903 -160.65355943 222.25937732 -160.700037 216.53426075 C-160.72962261 212.11332255 -160.73123979 207.69269288 -160.72501755 203.2716732 C-160.72603925 201.1623039 -160.73642573 199.05291625 -160.75664139 196.94364357 C-160.93109211 176.18872588 -160.93109211 176.18872588 -154 167 C-152.94067514 165.34967798 -151.88776176 163.69520787 -150.84375 162.03515625 C-149.73466174 160.37392233 -148.6198933 158.71646914 -147.5 157.0625 C-146.89615479 156.16426514 -146.29230957 155.26603027 -145.67016602 154.34057617 C-139.23736347 144.80676455 -132.65829278 135.37736617 -126 126 C-125.4548877 125.23059082 -124.90977539 124.46118164 -124.34814453 123.66845703 C-117.82832369 114.48508667 -111.11906 105.48213276 -104.16894531 96.61987305 C-100.30106118 91.68686466 -96.49899529 86.71140818 -92.75 81.6875 C-85.93750898 72.57269591 -79.09861765 63.49695816 -71.87133789 54.7043457 C-70.66299573 53.23179591 -69.46295926 51.75239223 -68.27124023 50.26635742 C-65.58433138 46.94966398 -62.97306703 43.86213425 -59.6953125 41.1171875 C-54.4086669 36.45131909 -51.90839666 32.76168887 -51.37867737 25.50439453 C-51.13619032 20.56775107 -51.08989223 15.65469988 -51.2331543 10.71435547 C-51.25298119 9.70585793 -51.25298119 9.70585793 -51.27320862 8.67698669 C-51.31790749 6.81502614 -51.4003201 4.95408307 -51.48486328 3.09350586 C-51 0 -51 0 -48.62133789 -2.3815918 C-38.2413692 -8.79016146 -8.95858602 -7.16686882 0 0 Z M-16 68 C-19.40324775 72.78294279 -20.85743959 75.99792289 -20 82 C-18.61770638 85.57770114 -16.72892367 88.33539313 -13.875 90.9375 C-8.66486512 92.86298463 -3.33513488 92.86298463 1.875 90.9375 C5.88825306 87.2783575 7.74663366 83.77356435 8.5 78.5 C7.74663366 73.22643565 5.88825306 69.7216425 1.875 66.0625 C-4.02191938 63.88320371 -11.14976142 63.57772365 -16 68 Z M41.125 71.1875 C39.51952018 75.20119956 39.32332621 78.73695511 40 83 C42.67486395 88.34972789 45.77625442 90.89713967 51.375 92.8125 C55.75819942 93.12558567 59.27061381 92.40053199 62.74609375 89.5859375 C66.84955282 85.27582941 68.09429699 81.94071044 68 76 C66.59795427 71.7938628 64.42033924 68.6529235 60.87109375 65.91796875 C53.41114101 62.25807544 46.20878376 65.25641895 41.125 71.1875 Z M101.1875 71.4375 C99.39807991 75.29888019 98.72786012 77.72094256 99.625 81.9375 C101.52232779 86.16336645 103.54392869 89.84539328 107.89453125 91.890625 C112.46878736 93.25503026 115.61988521 93.14138945 120 91 C123.43096205 88.66070769 125.42302109 86.82382497 127 83 C127.72798272 78.34429655 127.42814156 74.85628313 125.3125 70.625 C122.40542645 67.32507867 120.34201838 65.35130276 115.890625 64.68359375 C109.34758057 64.34326761 105.20630706 66.0328974 101.1875 71.4375 Z M-16 118 C-18.82237452 121.1673314 -19.9094238 124.35464458 -20.5 128.5625 C-19.75012359 133.71790034 -17.00508303 137.69145315 -13 141 C-8.22635638 142.59121454 -3.84983145 142.79879085 0.75 140.8125 C3.85485394 138.31136766 6.21336676 135.57326648 8 132 C8.4702321 127.20363262 8.01789555 123.71944866 5.40625 119.578125 C2.8584305 116.71890534 -0.37885613 115.13868001 -4 114 C-8.93312878 114 -11.97617066 115.19651235 -16 118 Z M45 117 C40.75118139 121.58425165 39.64012262 124.56640888 39.71875 130.6796875 C40.27570937 135.27460233 42.78988748 137.9627607 46.1875 140.875 C50.19774339 142.47909736 53.74045364 142.6836309 58 142 C61.86720247 139.99478391 64.94761566 137.88872822 67 134 C68.43394723 128.26421107 68.18824919 124.84366753 65.23046875 119.6953125 C62.61817828 116.09615674 59.81771032 115.21199897 55.625 114.125 C51.21242888 113.97284238 48.83004552 114.83204971 45 117 Z M102.0625 119.5625 C99.45478685 123.02505951 99.34903983 126.36594412 99.578125 130.59765625 C100.39307239 135.23832891 102.70169852 137.88717016 106.1875 140.875 C110.20119956 142.48047982 113.73695511 142.67667379 118 142 C122.38253554 139.80873223 125.16669816 137.58325461 127 133 C127.5608442 128.723563 127.49981102 125.18376294 125.8125 121.1875 C122.73518731 117.47350192 120.3352031 115.37088975 115.625 114.0625 C109.80181748 113.9621003 106.40236809 115.77665763 102.0625 119.5625 Z M-17.3125 169.5 C-20.1350365 173.68153556 -20.42121057 177.02971527 -20 182 C-17.565249 186.77585774 -14.79765866 189.60117067 -10 192 C-5.54580621 192.87302198 -2.71131823 192.37579076 1.3125 190.25 C5.33565332 186.88177862 7.04657465 184.83099928 7.875 179.625 C8.21811538 175.27172366 7.54804895 172.65220349 5 169 C1.48159851 165.17115133 -1.75704807 164.2450557 -6.7890625 163.90234375 C-11.50757376 164.11075856 -14.19683577 166.13171434 -17.3125 169.5 Z M42.6875 169.5625 C39.83122547 173.68822987 39.47506656 177.0465372 40 182 C42.03088811 186.7031093 45.43578239 189.71789119 50 192 C55.24308569 192.40331428 58.56127553 191.86051133 63 189 C66.40025244 185.78354499 67.79914787 182.84376948 68.15625 178.12109375 C67.86475925 174.16410686 66.41305561 171.11628896 64 168 C60.95658628 165.38295825 57.93853826 164.13407689 53.9375 163.5625 C49.05943847 164.2890198 45.99331669 165.89929772 42.6875 169.5625 Z M102.125 169.5625 C99.45471967 173.02781525 99.34443268 176.32730352 99.58203125 180.59765625 C100.2144635 184.23266406 101.50571683 186.30879974 104 189 C108.3770494 191.91803293 111.78463771 192.64048309 117 192 C120.5798086 190.62712495 123.33753021 188.72657977 125.9375 185.875 C127.54980893 181.51228171 127.88458118 177.57984772 127 173 C124.88680676 169.15398831 122.24271061 166.69713034 118.4375 164.5625 C111.54820257 162.97266213 107.36688158 164.89038816 102.125 169.5625 Z " fill="#010002" transform="translate(197,182)"/>
<path d="M0 0 C3.23378163 0.00008063 6.46741969 -0.00677411 9.70117188 -0.02050781 C59.20407659 -0.22716093 109.47269136 2.23537325 156.76318359 18.18530273 C157.54806152 18.4439209 158.33293945 18.70253906 159.14160156 18.96899414 C181.43031426 26.38646722 201.0433688 37.72817199 218.76318359 53.18530273 C219.49794922 53.82338867 220.23271484 54.46147461 220.98974609 55.11889648 C233.10180917 66.41614804 242.23638587 81.06260591 248.76318359 96.18530273 C249.03710938 96.81049805 249.31103516 97.43569336 249.59326172 98.07983398 C259.36116176 120.81668082 261.76318359 144.66902686 261.76318359 169.18530273 C226.78318359 169.18530273 191.80318359 169.18530273 155.76318359 169.18530273 C153.78318359 156.81030273 153.78318359 156.81030273 151.76318359 144.18530273 C147.20299877 125.08182576 140.37064393 107.06115942 123.76318359 95.18530273 C111.49963366 87.78353267 98.7024708 83.60722084 84.57568359 81.49780273 C83.77557861 81.37816162 82.97547363 81.25852051 82.15112305 81.13525391 C67.19989349 79.11647925 52.00260886 79.01512638 36.93896484 78.83374023 C35.1780734 78.81048623 33.41718374 78.78709624 31.65629578 78.76358032 C27.98646824 78.71558113 24.31661842 78.67063835 20.64672852 78.62768555 C16.95588885 78.58413748 13.26517238 78.53562463 9.57446289 78.48217773 C-8.50289012 78.22101826 -26.56612632 78.00089335 -44.63916016 78.58374023 C-45.85536545 78.62228119 -47.07157074 78.66082214 -48.32463074 78.70053101 C-74.75635823 79.69983797 -102.05839002 83.85904135 -121.50634766 103.47436523 C-136.33323031 120.19565368 -141.27672759 142.99292094 -143.75634766 164.63061523 C-144.23681641 168.18530273 -144.23681641 168.18530273 -145.23681641 169.18530273 C-146.60289967 169.28065487 -147.97387096 169.30718944 -149.34327698 169.30555725 C-150.22813782 169.30693192 -151.11299866 169.30830658 -152.02467346 169.3097229 C-153.00290573 169.30612762 -153.981138 169.30253235 -154.98901367 169.29882812 C-156.01328461 169.29897415 -157.03755554 169.29912018 -158.09286499 169.29927063 C-161.4963387 169.29857102 -164.89975845 169.29077637 -168.30322266 169.28295898 C-170.65591909 169.28109498 -173.00861591 169.27967099 -175.36131287 169.27867126 C-181.56738345 169.27484473 -187.77343081 169.26501329 -193.97949219 169.25396729 C-200.30680019 169.24375608 -206.63411192 169.23917427 -212.96142578 169.23413086 C-225.38656622 169.22339114 -237.81168939 169.20631309 -250.23681641 169.18530273 C-250.24486747 166.78848605 -250.25073911 164.39169678 -250.25537109 161.99487305 C-250.25785858 161.32094513 -250.26034607 160.64701721 -250.26290894 159.95266724 C-250.27021978 154.90318508 -250.05600004 149.94994771 -249.48681641 144.93530273 C-249.39883789 144.14647705 -249.31085938 143.35765137 -249.22021484 142.54492188 C-244.71127916 104.98161861 -229.05355582 70.40110767 -199.23681641 46.18530273 C-156.94139293 13.97065377 -102.0608316 4.57479048 -50.23681641 1.18530273 C-49.03573242 1.09772705 -47.83464844 1.01015137 -46.59716797 0.91992188 C-31.08595292 -0.11623543 -15.53794812 -0.00204422 0 0 Z " fill="#010002" transform="translate(250.23681640625,44.814697265625)"/>
<path d="M0 0 C34.98 0 69.96 0 106 0 C106 10.12804635 104.84121893 20.03667638 98 28 C86.31587387 38.12130522 71.11033621 36.59227195 56.55224609 36.46655273 C52.87682098 36.43751439 49.20283535 36.44598897 45.52734375 36.45898438 C43.16145142 36.45274765 40.79556357 36.44435723 38.4296875 36.43359375 C37.34605927 36.43652939 36.26243103 36.43946503 35.14596558 36.44248962 C25.5521511 36.32529217 15.8432901 34.84402007 8 29 C0.10116955 19.58357018 0 12.59187032 0 0 Z " fill="#010002" transform="translate(0,225)"/>
<path d="M0 0 C34.98 0 69.96 0 106 0 C106 11.72806625 105.98420217 18.86781956 98.09765625 27.2734375 C90.48870131 33.53630171 80.67628904 34.14952096 71.25 34.5625 C70.31696045 34.6042334 69.3839209 34.6459668 68.42260742 34.68896484 C59.94074419 35.04324947 51.48707118 35.18327238 43 35 C41.87634033 34.98114746 41.87634033 34.98114746 40.72998047 34.96191406 C15.24428905 34.43797914 15.24428905 34.43797914 6.36328125 25.77734375 C0.3016825 17.87468636 0 9.81910611 0 0 Z " fill="#010002" transform="translate(406,225)"/>
</svg>
