<?xml version="1.0" encoding="UTF-8"?>
<svg version="1.1" xmlns="http://www.w3.org/2000/svg" width="512" height="512">
<path d="M0 0 C1.24199397 1.08971818 2.46978712 2.1957144 3.6875 3.3125 C4.25839355 3.82385498 4.82928711 4.33520996 5.41748047 4.86206055 C13.37146719 12.87032253 17.63398687 23.41626417 22.5 33.4375 C23.48193916 35.43350087 24.46501653 37.42894218 25.44921875 39.42382812 C28.21586077 45.04347796 30.95733025 50.67505355 33.6875 56.3125 C34.03327087 57.02611694 34.37904175 57.73973389 34.73529053 58.47497559 C36.11073002 61.31640382 37.48073384 64.16029561 38.84301758 67.00805664 C39.72001483 68.83737703 40.6061663 70.66234518 41.50268555 72.48217773 C43.23105479 76.02238364 44.79025546 79.38171072 45.7890625 83.19921875 C46.97234829 87.01554125 47.72650382 88.60887071 50.6875 91.3125 C54.21620925 92.43699061 57.80690956 92.86254057 61.47265625 93.33203125 C62.57022751 93.48986084 63.66779877 93.64769043 64.79862976 93.81030273 C67.17907095 94.15048898 69.56085291 94.48139295 71.94372559 94.80410767 C75.71923585 95.31680963 79.49008929 95.85585871 83.26074219 96.40307617 C88.500681 97.16242506 93.74107402 97.9184103 98.98242188 98.66796875 C99.64051472 98.76224246 100.29860756 98.85651617 100.97664261 98.95364666 C104.34822172 99.4360283 107.72033199 99.91414641 111.09350586 100.38525391 C113.78959502 100.76207115 116.48470067 101.14489849 119.17900085 101.53430176 C121.6743437 101.89486331 124.17088097 102.24729846 126.66877747 102.58972168 C138.56604043 104.33280257 148.7569167 106.95119691 157.6875 115.3125 C158.25210937 115.83585937 158.81671875 116.35921875 159.3984375 116.8984375 C166.71670821 124.51389687 169.44098003 134.52946574 169.81640625 144.859375 C169.15992514 162.44511134 158.68088807 172.90779838 146.8125 184.5 C145.55772071 185.74326011 144.30380824 186.98739571 143.05078125 188.23242188 C137.78060689 193.45016059 132.48926824 198.59122571 126.85546875 203.41772461 C121.93979448 207.71395749 117.19366097 212.18725407 112.4934082 216.71704102 C111.24377536 217.90952353 109.981848 219.0892488 108.70825195 220.25610352 C106.84494359 221.96678757 105.02817918 223.71707778 103.21484375 225.48046875 C102.35885841 226.2405146 102.35885841 226.2405146 101.48558044 227.01591492 C98.98764709 229.52474507 97.77412418 231.27013047 97.47633362 234.85351562 C97.69276014 238.058013 98.1447891 241.14663215 98.6875 244.3125 C98.87784317 245.51357895 99.06818634 246.7146579 99.26429749 247.95213318 C99.81852437 251.30620549 100.40561313 254.65064289 101.01558113 257.99480057 C101.4214024 260.22589064 101.81837388 262.45840129 102.21299744 264.6914978 C103.33425532 271.03218651 104.46432336 277.37120892 105.61547852 283.70654297 C114.23140028 331.21489825 114.23140028 331.21489825 105.1796875 345.73046875 C98.83924924 354.53335629 90.45319846 361.14911945 79.6875 363.3125 C76.68515245 363.63602578 73.70604341 363.7625418 70.6875 363.8125 C69.60287476 363.84041626 69.60287476 363.84041626 68.49633789 363.86889648 C58.42928846 363.7529763 49.74134384 359.07157448 41.1875 354.1875 C29.71181844 347.77952031 18.0399411 341.78523661 6.3359375 335.80810547 C5.6220285 335.44292816 4.90811951 335.07775085 4.1725769 334.70150757 C2.75675373 333.97808114 1.33987396 333.25671857 -0.07809448 332.5375061 C-3.59637839 330.74448567 -7.07111651 328.90260313 -10.50439453 326.95117188 C-11.51440269 326.38502167 -11.51440269 326.38502167 -12.54481506 325.80743408 C-13.81130577 325.09353306 -15.07048461 324.3664307 -16.32029724 323.62371826 C-19.16618361 322.02908939 -21.0623002 321.30434656 -24.34667969 321.41137695 C-27.65882364 322.4177256 -30.51006861 323.72633835 -33.57421875 325.33984375 C-34.15769073 325.64411789 -34.74116272 325.94839203 -35.34231567 326.2618866 C-37.23248159 327.25001681 -39.11620406 328.2497876 -41 329.25 C-42.31627051 329.94131623 -43.63292427 330.63190321 -44.94995117 331.32177734 C-47.55860203 332.68990573 -50.16474073 334.06263015 -52.76855469 335.43994141 C-55.70781556 336.99452158 -58.6527278 338.537856 -61.6015625 340.07421875 C-68.26729796 343.5535823 -74.9024135 347.07820704 -81.48828125 350.70703125 C-82.55780029 351.29403809 -83.62731934 351.88104492 -84.72924805 352.48583984 C-86.80860884 353.62924302 -88.8845322 354.77892878 -90.95629883 355.93603516 C-99.64893912 360.71372547 -107.17913158 363.88841477 -117.1875 363.75 C-118.36203735 363.73755249 -118.36203735 363.73755249 -119.56030273 363.72485352 C-131.44623596 363.38013814 -140.12360247 358.79552336 -148.28515625 350.24609375 C-154.9949604 342.28265316 -157.62154156 334.45845114 -157.58789062 324.06933594 C-157.58552147 323.28315258 -157.58315231 322.49696922 -157.58071136 321.68696213 C-157.44376309 313.00923136 -156.03134491 304.6565131 -154.46875 296.140625 C-154.17580677 294.47704624 -153.88437531 292.81320064 -153.59436035 291.14910889 C-152.83804256 286.82885853 -152.06458479 282.51187781 -151.28619385 278.19555664 C-150.03651133 271.24911882 -148.81334241 264.2979699 -147.59086609 257.34670258 C-147.16429727 254.93610127 -146.73005982 252.52698194 -146.29455566 250.11798096 C-146.03149116 248.6402069 -145.76858389 247.16240485 -145.50585938 245.68457031 C-145.15944397 243.76079559 -145.15944397 243.76079559 -144.80603027 241.79815674 C-143.74627341 235.87248595 -143.74627341 235.87248595 -145.51147461 230.38526917 C-146.07358643 229.83346481 -146.63569824 229.28166046 -147.21484375 228.71313477 C-148.16713867 227.75667809 -148.16713867 227.75667809 -149.13867188 226.78089905 C-149.83541016 226.11199142 -150.53214844 225.4430838 -151.25 224.75390625 C-151.96349609 224.04652817 -152.67699219 223.33915009 -153.41210938 222.6103363 C-155.69855422 220.35081811 -158.00521175 218.1132092 -160.3125 215.875 C-161.83595262 214.37307971 -163.35810335 212.86983764 -164.87890625 211.36523438 C-170.9439306 205.39039672 -177.02674688 199.5060428 -183.46405029 193.93138123 C-187.6028597 190.30659185 -191.50070861 186.42772304 -195.41308594 182.56201172 C-196.42761612 181.56405458 -197.44748404 180.57149437 -198.47265625 179.58447266 C-208.72281929 169.71115384 -216.09817014 159.68537803 -216.375 144.99609375 C-215.94080079 132.63498493 -212.27367649 123.33502331 -203.6328125 114.4375 C-192.69645447 104.42171083 -178.62993777 103.41574472 -164.5390625 101.4296875 C-162.72437296 101.16804941 -160.9097891 100.90567738 -159.0953064 100.64260864 C-154.34676885 99.95586804 -149.59703143 99.27783516 -144.84692383 98.60205078 C-137.22385255 97.51587347 -129.60278292 96.41572067 -121.98154831 95.31674576 C-119.32516784 94.93487782 -116.66832833 94.55635208 -114.01138306 94.17843628 C-112.38599976 93.94566597 -110.76062301 93.71284986 -109.13525391 93.47998047 C-108.3985849 93.37608002 -107.66191589 93.27217957 -106.90292358 93.16513062 C-102.02593731 92.57659588 -102.02593731 92.57659588 -97.3125 91.3125 C-95.87490701 89.07056448 -94.72558183 86.97573741 -93.58984375 84.5859375 C-93.24797531 83.89503021 -92.90610687 83.20412292 -92.55387878 82.49227905 C-91.43896981 80.23041687 -90.3444429 77.95932604 -89.25 75.6875 C-88.48340509 74.12215962 -87.71565762 72.55738316 -86.94677734 70.99316406 C-84.71563385 66.44238178 -82.50994879 61.87963114 -80.3125 57.3125 C-79.475979 55.57564941 -79.475979 55.57564941 -78.62255859 53.80371094 C-77.22362186 50.89182619 -75.82906036 47.97791603 -74.4375 45.0625 C-73.79470093 43.7161145 -73.79470093 43.7161145 -73.13891602 42.3425293 C-72.71666748 41.45734619 -72.29441895 40.57216309 -71.859375 39.66015625 C-71.44365234 38.78891113 -71.02792969 37.91766602 -70.59960938 37.02001953 C-69.70598529 35.14022227 -68.81698739 33.25822158 -67.93164062 31.37451172 C-53.95190073 1.72300135 -53.95190073 1.72300135 -37.72265625 -4.71484375 C-25.12731047 -8.63620678 -11.03586327 -7.75317987 0 0 Z " fill="#000000" transform="translate(279.3125,44.6875)"/>
<path d="M0 0 C1.58938883 0.53397832 3.17663799 1.07436518 4.76174927 1.62091064 C7.17788939 2.45035014 9.60423551 3.24196253 12.03396606 4.03057861 C13.5978596 4.55571633 15.16103868 5.0829876 16.72341919 5.61260986 C17.43710159 5.8441275 18.150784 6.07564514 18.88609314 6.31417847 C24.63698442 8.33775589 29.89920922 11.4431219 33.03172302 16.8432312 C35.1195154 21.83407444 34.83533302 28.2888461 32.91482544 33.28057861 C30.15151263 37.96430693 27.38630791 40.79168578 22.07473755 42.3460083 C13.3411514 43.94084555 5.39615899 40.70432692 -2.80001831 37.99176025 C-5.391105 37.13563668 -7.990576 36.31053837 -10.59298706 35.48956299 C-12.26023121 34.95294242 -13.92691906 34.41458975 -15.59298706 33.87432861 C-16.7462851 33.50686272 -16.7462851 33.50686272 -17.92288208 33.13197327 C-24.41075732 30.96499565 -30.16056619 28.33173056 -33.44845581 21.94854736 C-35.23067741 16.47098494 -34.81346849 10.84436665 -33.01486206 5.44854736 C-24.38834762 -6.62857285 -12.5357482 -4.08584891 0 0 Z " fill="#000000" transform="translate(478.1398620605469,290.17645263671875)"/>
<path d="M0 0 C4.14296861 3.83224596 7.18337527 7.00610732 7.73828125 12.80078125 C7.89821612 18.88672375 7.68651469 22.54452494 3.5 27.3125 C2.95682129 27.96387939 2.41364258 28.61525879 1.85400391 29.28637695 C-1.24591169 31.9545163 -4.58754366 33.0509889 -8.4140625 34.29296875 C-9.18374359 34.55128983 -9.95342468 34.8096109 -10.74642944 35.07575989 C-12.37344622 35.61845195 -14.00246587 36.15517126 -15.63330078 36.6862793 C-18.10128335 37.49225479 -20.56042333 38.32169136 -23.01953125 39.15429688 C-42.24635723 45.56767328 -42.24635723 45.56767328 -50.3125 43.1875 C-54.97293071 40.44607017 -58.46521781 37.37704598 -60.5 32.3125 C-61.16360439 26.77217497 -61.25573895 21.87995856 -58.8125 16.8125 C-54.27964336 11.91211445 -49.84995612 9.39838597 -43.55859375 7.296875 C-42.79507095 7.03618225 -42.03154816 6.7754895 -41.24488831 6.50689697 C-39.63212345 5.96044917 -38.01748175 5.41951309 -36.40112305 4.88378906 C-33.96231373 4.07077206 -31.53523926 3.22799966 -29.10742188 2.3828125 C-9.13213341 -4.40299289 -9.13213341 -4.40299289 0 0 Z " fill="#000000" transform="translate(60.5,288.6875)"/>
<path d="M0 0 C4.45358274 2.14726311 7.3072942 4.86477323 10 9 C11.83653817 14.28636842 12.30753314 18.94207085 12.30078125 24.4609375 C12.30506638 25.25094147 12.3093515 26.04094543 12.31376648 26.85488892 C12.31947886 28.51718188 12.320033 30.17949982 12.31567383 31.84179688 C12.31251739 34.36111886 12.33599864 36.87926055 12.36132812 39.3984375 C12.43685744 57.77473205 12.43685744 57.77473205 7.24609375 64.15625 C6.64925781 64.5996875 6.05242187 65.043125 5.4375 65.5 C4.53837891 66.19609375 4.53837891 66.19609375 3.62109375 66.90625 C-1.09981705 70.09144283 -6.49251697 69.51902981 -12 69 C-16.45358274 66.85273689 -19.3072942 64.13522677 -22 60 C-23.83653817 54.71363158 -24.30753314 50.05792915 -24.30078125 44.5390625 C-24.30506638 43.74905853 -24.3093515 42.95905457 -24.31376648 42.14511108 C-24.31947886 40.48281812 -24.320033 38.82050018 -24.31567383 37.15820312 C-24.31251739 34.63888114 -24.33599864 32.12073945 -24.36132812 29.6015625 C-24.43685744 11.22526795 -24.43685744 11.22526795 -19.24609375 4.84375 C-18.64925781 4.4003125 -18.05242187 3.956875 -17.4375 3.5 C-16.83808594 3.0359375 -16.23867187 2.571875 -15.62109375 2.09375 C-10.90018295 -1.09144283 -5.50748303 -0.51902981 0 0 Z " fill="#000000" transform="translate(262,431)"/>
<path d="M0 0 C4.63087046 2.49220813 7.44803045 5.43265316 10.5625 9.625 C11.17834961 10.44859009 11.17834961 10.44859009 11.80664062 11.28881836 C13.21638439 13.18400749 14.60864654 15.09127256 16 17 C16.55800293 17.75909668 17.11600586 18.51819336 17.69091797 19.30029297 C19.46635133 21.71689577 21.23493095 24.13831824 23 26.5625 C23.56404541 27.33609863 24.12809082 28.10969727 24.70922852 28.90673828 C25.23830811 29.64005371 25.7673877 30.37336914 26.3125 31.12890625 C26.78300781 31.77931885 27.25351563 32.42973145 27.73828125 33.09985352 C31.60819708 38.92794076 31.72267208 44.10751501 31 51 C29.73927159 55.03289826 27.50800266 57.54037854 24.375 60.375 C18.81455417 63.05225169 12.97098964 63.85170483 6.9375 62.25 C1.09448395 59.61422829 -2.35935286 54.05372115 -6 49 C-6.49113281 48.31905273 -6.98226562 47.63810547 -7.48828125 46.93652344 C-10.56728495 42.64463677 -13.60386039 38.32468805 -16.61132812 33.98242188 C-17.98154621 32.02634402 -19.38705058 30.09951155 -20.796875 28.171875 C-24.4148705 22.96298786 -24.80668951 18.18767524 -24 12 C-22.30627755 7.71459019 -19.73240167 4.73240167 -16.5 1.5 C-11.15437104 -0.79098384 -5.72111147 -0.94426112 0 0 Z " fill="#000000" transform="translate(107,12)"/>
<path d="M0 0 C5.46874446 2.34374763 8.78361235 6.54355413 11 12 C12.23157421 18.16780308 11.16669735 23.04848295 7.875 28.33203125 C3.89055624 34.00156269 -0.28201601 39.52143115 -4.49853516 45.01953125 C-5.89391073 46.86006567 -7.25655623 48.71900799 -8.60546875 50.59375 C-9.75982422 52.18703125 -9.75982422 52.18703125 -10.9375 53.8125 C-11.60652344 54.74707031 -12.27554687 55.68164062 -12.96484375 56.64453125 C-16.35852021 60.57233721 -19.73705499 62.33329973 -24.875 62.875 C-31.10446642 63.31930073 -35.08669595 61.65819685 -39.8125 57.5625 C-44.0346097 52.61660006 -44.64295634 48.62510342 -44.48046875 42.1875 C-43.71871939 37.13394329 -41.37147575 33.77860352 -38.32373047 29.75537109 C-36.72630169 27.63705444 -35.17903033 25.48519611 -33.62890625 23.33203125 C-15.62100897 -1.51925025 -15.62100897 -1.51925025 0 0 Z " fill="#000000" transform="translate(418,12)"/>
</svg>
