<?xml version="1.0" encoding="UTF-8"?>
<svg version="1.1" xmlns="http://www.w3.org/2000/svg" width="512" height="512">
<path d="M0 0 C1.14483856 -0.0127597 2.28967712 -0.02551941 3.46920776 -0.03866577 C4.70671783 -0.04089142 5.94422791 -0.04311707 7.21923828 -0.04541016 C9.12613937 -0.05539536 9.12613937 -0.05539536 11.07156372 -0.06558228 C13.76334614 -0.0757172 16.4547248 -0.08126322 19.14648438 -0.08007812 C22.58884624 -0.07987505 26.03038144 -0.10716384 29.47254753 -0.14162254 C32.76307998 -0.1692652 36.05360548 -0.16804154 39.34423828 -0.17041016 C41.19443069 -0.19196671 41.19443069 -0.19196671 43.08200073 -0.21395874 C44.23314362 -0.20780548 45.3842865 -0.20165222 46.5703125 -0.1953125 C48.08563065 -0.19958755 48.08563065 -0.19958755 49.63156128 -0.20394897 C53.17080364 0.42489692 54.83673465 1.83634663 57.41455078 4.29052734 C59.92728335 8.51648667 59.4050145 11.5738045 58.41455078 16.29052734 C57.18682117 19.06864549 55.68316822 21.66269075 54.16455078 24.29052734 C49.85981265 32.09829081 46.78837049 39.66099453 44.41455078 48.29052734 C44.09615234 49.35142578 43.77775391 50.41232422 43.44970703 51.50537109 C37.35424917 75.57821621 40.96751175 101.49497176 49.89111328 124.20849609 C51.05781193 127.21414706 51.93932667 130.08597554 52.41455078 133.29052734 C50.92568359 132.98308594 50.92568359 132.98308594 49.40673828 132.66943359 C21.22026924 127.00207235 -4.98575728 129.69322137 -29.58544922 145.29052734 C-33.49517962 148.06270782 -37.07000538 151.03675084 -40.58544922 154.29052734 C-41.36146484 154.98662109 -42.13748047 155.68271484 -42.93701172 156.39990234 C-57.90987771 170.49806482 -69.48704451 192.39334828 -70.76245117 213.17456055 C-71.13977917 232.6738495 -70.09376157 248.47780324 -61.58544922 266.29052734 C-61.14458984 267.21349609 -60.70373047 268.13646484 -60.24951172 269.08740234 C-48.93463892 291.21704307 -29.09636201 306.17948851 -6.15576172 314.54052734 C18.20459169 322.19181617 44.03548589 320.25280382 66.74682617 308.53027344 C72.42549299 305.44911774 77.70765226 301.85891672 82.93798828 298.07568359 C85.41455078 296.29052734 85.41455078 296.29052734 87.41455078 295.29052734 C87.41455078 324.99052734 87.41455078 354.69052734 87.41455078 385.29052734 C69.41455078 391.29052734 69.41455078 391.29052734 62.41455078 392.29052734 C62.44162109 393.55380859 62.46869141 394.81708984 62.49658203 396.11865234 C62.49262261 403.60987998 61.88707041 411.05982811 61.29760742 418.5234375 C61.1014755 421.04793206 60.92301585 423.57331862 60.74462891 426.09912109 C60.61876294 427.72029962 60.49184654 429.341397 60.36376953 430.96240234 C60.31363205 431.70939392 60.26349457 432.4563855 60.21183777 433.22601318 C59.75389754 438.6448377 58.73101652 443.11712591 54.66506958 446.93196106 C51.83570244 448.63995959 50.00989865 448.6768941 46.71557617 448.69458008 C44.99843163 448.71360634 44.99843163 448.71360634 43.24659729 448.73301697 C42.0142485 448.73008133 40.78189972 448.72714569 39.51220703 448.72412109 C38.24235458 448.72936295 36.97250214 448.7346048 35.66416931 448.74000549 C32.97819037 448.74643027 30.29306057 448.7465215 27.60717773 448.73657227 C24.17264445 448.72508689 20.73914 448.74528842 17.30474186 448.7744894 C14.01972525 448.79729472 10.73478425 448.79038291 7.44970703 448.78662109 C5.6042202 448.80347206 5.6042202 448.80347206 3.72145081 448.82066345 C2.57353561 448.8112825 1.42562042 448.80190155 0.24291992 448.79223633 C-0.76427597 448.79207016 -1.77147186 448.79190399 -2.80918884 448.79173279 C-6.88353597 448.05618039 -9.43168487 445.87376581 -11.84472656 442.5625 C-12.97774103 439.08727501 -13.17990253 435.56176486 -13.43701172 431.93896484 C-13.50076996 431.12489166 -13.5645282 430.31081848 -13.63021851 429.47207642 C-13.76345868 427.7492639 -13.8926464 426.02613384 -14.01806641 424.30273438 C-14.20829925 421.69499939 -14.41137079 419.08851878 -14.61669922 416.48193359 C-15.23832227 408.40315994 -15.76936003 400.39932222 -15.58544922 392.29052734 C-17.50357422 391.98115234 -17.50357422 391.98115234 -19.46044922 391.66552734 C-34.56397598 388.56845585 -47.99413392 382.39498523 -61.58789062 375.29638672 C-63.86975559 374.14736647 -66.18572263 373.16669527 -68.58544922 372.29052734 C-69.47683594 373.1084375 -69.47683594 373.1084375 -70.38623047 373.94287109 C-75.74150233 378.81508577 -81.21542329 383.47258561 -86.84716797 388.02099609 C-89.60632846 390.3078324 -92.2556683 392.6825871 -94.89794922 395.10302734 C-104.17409214 403.44572192 -104.17409214 403.44572192 -109.96044922 403.97802734 C-113.78812716 403.73837451 -115.59163545 402.81443507 -118.39038086 400.22338867 C-119.08205353 399.58752838 -119.7737262 398.95166809 -120.48635864 398.29653931 C-123.80489798 395.12515181 -127.09068891 391.92810762 -130.33154297 388.67724609 C-131.02812515 387.98162064 -131.72470734 387.28599518 -132.44239807 386.56929016 C-133.89812921 385.11423389 -135.35262102 383.65793672 -136.8059082 382.20043945 C-139.0379219 379.96301839 -141.27529056 377.73105057 -143.51318359 375.49951172 C-144.93212456 374.0799108 -146.35075576 372.66000017 -147.76904297 371.23974609 C-148.43874619 370.57206711 -149.1084494 369.90438812 -149.79844666 369.21647644 C-150.41321365 368.59855728 -151.02798065 367.98063812 -151.66137695 367.34399414 C-152.20350327 366.80107224 -152.74562958 366.25815033 -153.30418396 365.69877625 C-156.04534515 362.68594404 -156.1155914 359.69108259 -156.03466797 355.76318359 C-155.1531668 350.91109454 -151.80644583 347.85530849 -148.58544922 344.29052734 C-147.59176202 343.14451323 -146.60108945 341.99588103 -145.61279297 340.84521484 C-143.40667681 338.28031277 -141.19010119 335.72513078 -138.96435547 333.17724609 C-134.10540379 327.60436028 -129.34579655 321.94761346 -124.58544922 316.29052734 C-125.89805175 312.90390732 -127.34964215 309.65063243 -128.97607422 306.40380859 C-133.52800609 297.19464254 -137.98399638 288.06020163 -141.21044922 278.29052734 C-141.44538086 277.58065674 -141.6803125 276.87078613 -141.92236328 276.1394043 C-143.26782487 271.85600922 -144.06513223 267.73056565 -144.58544922 263.29052734 C-145.84873047 263.31759766 -147.11201172 263.34466797 -148.41357422 263.37255859 C-155.90480185 263.36859917 -163.35474998 262.76304697 -170.81835938 262.17358398 C-173.34285394 261.97745206 -175.86824049 261.79899241 -178.39404297 261.62060547 C-180.01522149 261.4947395 -181.63631888 261.3678231 -183.25732422 261.23974609 C-184.0043158 261.18960861 -184.75130737 261.13947113 -185.52093506 261.08781433 C-190.93975957 260.6298741 -195.41204778 259.60699308 -199.22688293 255.54104614 C-200.93488147 252.711679 -200.97181597 250.88587521 -200.98950195 247.59155273 C-201.00218613 246.4467897 -201.0148703 245.30202667 -201.02793884 244.12257385 C-201.0250032 242.89022507 -201.02206757 241.65787628 -201.01904297 240.38818359 C-201.02428482 239.11833115 -201.02952667 237.8484787 -201.03492737 236.54014587 C-201.04135214 233.85416693 -201.04144338 231.16903714 -201.03149414 228.4831543 C-201.02000877 225.04862101 -201.0402103 221.61511656 -201.06941128 218.18071842 C-201.09221659 214.89570181 -201.08530478 211.61076081 -201.08154297 208.32568359 C-201.09839394 206.48019676 -201.09839394 206.48019676 -201.11558533 204.59742737 C-201.10620438 203.44951218 -201.09682343 202.30159698 -201.0871582 201.11889648 C-201.08699203 200.11170059 -201.08682587 199.1045047 -201.08665466 198.06678772 C-200.44954548 194.53773389 -199.03392985 192.86218158 -196.58544922 190.29052734 C-192.44935639 187.96072863 -188.00614271 187.78092131 -183.35498047 187.43896484 C-182.56451828 187.3752066 -181.77405609 187.31144836 -180.9596405 187.24575806 C-179.28987666 187.11271496 -177.61980297 186.98351174 -175.94946289 186.85791016 C-173.42302709 186.6674182 -170.89784438 186.46439672 -168.37255859 186.25927734 C-160.42631336 185.62900198 -152.56319452 185.11125217 -144.58544922 185.29052734 C-144.50439941 184.64204834 -144.42334961 183.99356934 -144.33984375 183.32543945 C-142.29893276 168.2072891 -135.48499378 154.22838771 -127.96655273 141.14453125 C-127.49918701 140.30712402 -127.03182129 139.4697168 -126.55029297 138.60693359 C-125.91015259 137.50007202 -125.91015259 137.50007202 -125.25708008 136.37084961 C-124.35237578 134.28434397 -124.35237578 134.28434397 -125.31274414 132.20581055 C-127.28605666 129.23618908 -129.61330167 126.58985529 -131.96044922 123.91552734 C-133.0424915 122.66683898 -134.12452241 121.41814077 -135.20654297 120.16943359 C-136.3327256 118.8763608 -137.45902801 117.58339232 -138.58544922 116.29052734 C-140.73602811 113.81542844 -142.88070076 111.33533666 -145.02294922 108.85302734 C-145.50618652 108.2988916 -145.98942383 107.74475586 -146.48730469 107.17382812 C-156.29796472 95.81035276 -156.29796472 95.81035276 -156.33544922 90.85302734 C-156.01864201 87.07250028 -155.07650261 85.26373144 -152.5144043 82.48950195 C-151.87910797 81.79726532 -151.24381165 81.10502869 -150.58926392 80.39181519 C-147.42134176 77.06979329 -144.22310012 73.78535805 -140.97216797 70.54443359 C-140.27654251 69.84785141 -139.58091705 69.15126923 -138.86421204 68.43357849 C-137.40915576 66.97784735 -135.95285859 65.52335554 -134.49536133 64.07006836 C-132.25794027 61.83805467 -130.02597244 59.600686 -127.79443359 57.36279297 C-126.37483267 55.943852 -124.95492204 54.5252208 -123.53466797 53.10693359 C-122.86698898 52.43723038 -122.19931 51.76752716 -121.51139832 51.07752991 C-120.58451958 50.15537941 -120.58451958 50.15537941 -119.63891602 49.21459961 C-119.09599411 48.6724733 -118.5530722 48.13034698 -117.99369812 47.5717926 C-114.98086591 44.83063141 -111.98600446 44.76038516 -108.05810547 44.84130859 C-103.20601641 45.72280977 -100.15023036 49.06953073 -96.58544922 52.29052734 C-95.4394351 53.28421454 -94.2908029 54.27488711 -93.14013672 55.26318359 C-90.57523465 57.46929975 -88.02005265 59.68587537 -85.47216797 61.91162109 C-79.89928216 66.77057278 -74.24253533 71.53018001 -68.58544922 76.29052734 C-65.19882919 74.97792481 -61.94555431 73.52633442 -58.69873047 71.89990234 C-49.48956441 67.34797047 -40.3551235 62.89198018 -30.58544922 59.66552734 C-29.87557861 59.4305957 -29.16570801 59.19566406 -28.43432617 58.95361328 C-24.15093109 57.60815169 -20.02548753 56.81084433 -15.58544922 56.29052734 C-15.62412109 54.41107422 -15.62412109 54.41107422 -15.66357422 52.49365234 C-15.65818953 44.85278607 -15.09000418 37.24641837 -14.5234375 29.63037109 C-14.39763119 27.89718493 -14.27952319 26.16342355 -14.16894531 24.42919922 C-14.00722839 21.89706528 -13.82235076 19.36755076 -13.63232422 16.83740234 C-13.58734802 16.06853699 -13.54237183 15.29967163 -13.49603271 14.50750732 C-13.08048949 9.44493875 -11.89303449 6.3287343 -8.58544922 2.29052734 C-5.19305704 0.02893256 -3.98135083 0.03009278 0 0 Z " fill="#000000" transform="translate(232.58544921875,31.70947265625)"/>
<path d="M0 0 C0 31.35 0 62.7 0 95 C1.65 95.33 3.3 95.66 5 96 C7.51183868 96.95315464 9.98469441 97.9393839 12.4609375 98.9765625 C13.91637277 99.57103256 15.37211162 100.16475979 16.828125 100.7578125 C19.10449534 101.68976912 21.37844352 102.62644134 23.64746094 103.57617188 C25.85027037 104.49552227 28.06078873 105.39370023 30.2734375 106.2890625 C30.94345795 106.57544586 31.61347839 106.86182922 32.30380249 107.15689087 C39.79924821 110.14937276 45.47873056 108.08743346 52.578125 105.05859375 C53.61800568 104.6278933 53.61800568 104.6278933 54.67889404 104.18849182 C56.87251965 103.2790887 59.06153698 102.35925013 61.25 101.4375 C63.45312991 100.51319561 65.65716412 99.59133356 67.86395264 98.67579651 C69.23178657 98.10801695 70.59749221 97.5350761 71.96075439 96.95640564 C74.81762006 95.76786105 76.87103749 95 80 95 C80 63.65 80 32.3 80 0 C92.88548594 2.14758099 104.94066661 14.99376242 112.54296875 25.3515625 C126.90988043 46.09296238 131.54249977 71.58179826 127.19140625 96.375 C123.76503112 112.12935886 115.87026985 126.20030187 105 138 C104.17628906 138.94359375 104.17628906 138.94359375 103.3359375 139.90625 C97.04756018 146.7212402 88.64607863 152.70168111 80 156 C80.00227832 156.81896278 80.00227832 156.81896278 80.00460267 157.65447026 C80.09418207 190.03818322 80.16278008 222.42186329 80.20426132 254.80567165 C80.20926394 258.69702675 80.21444125 262.5883816 80.21972656 266.47973633 C80.2207758 267.25441075 80.22182505 268.02908518 80.22290608 268.82723459 C80.24029496 281.35843727 80.27182426 293.88956629 80.30861118 306.42072532 C80.3460629 319.28596502 80.36824478 332.15116624 80.37635398 345.01645821 C80.381833 352.95030742 80.39911631 360.8839484 80.43166587 368.81773349 C80.45537803 374.90901119 80.4578092 381.00011107 80.45243073 387.0914402 C80.45352913 389.58468404 80.46145853 392.07793592 80.4768219 394.57113266 C80.49681241 397.98323975 80.49190537 401.39446608 80.48101807 404.80659485 C80.49266943 405.78620015 80.5043208 406.76580545 80.51632524 407.77509576 C80.42118714 418.85576649 76.64914705 427.98732913 69 436 C59.77286823 444.80850953 50.14955676 447.62574301 37.63525391 447.47070312 C25.80802493 447.00249528 17.15892893 442.4516305 9.02734375 433.93359375 C1.72212649 425.26349514 -0.6135983 415.95346852 -0.48101807 404.80659485 C-0.48443577 403.73547256 -0.48785347 402.66435027 -0.49137473 401.56076974 C-0.49791946 398.00157799 -0.47603328 394.44315449 -0.45410156 390.8840332 C-0.45297235 388.32086708 -0.45360838 385.75769967 -0.45587158 383.1945343 C-0.45677999 377.6916014 -0.44549664 372.18891221 -0.42292023 366.68602943 C-0.39030084 358.7300114 -0.3799831 350.77408491 -0.37496826 342.81800725 C-0.36623112 329.9073465 -0.33965866 316.99678731 -0.30175781 304.08618164 C-0.26499666 291.55070501 -0.23670504 279.01525604 -0.21972656 266.47973633 C-0.21867567 265.70600744 -0.21762477 264.93227854 -0.21654204 264.13510332 C-0.21132158 260.25322195 -0.20626682 256.37134038 -0.20129442 252.48945868 C-0.15988166 220.326232 -0.08947655 188.16313015 0 156 C-1.14637939 155.55998657 -1.14637939 155.55998657 -2.31591797 155.11108398 C-21.3770093 147.2206868 -34.81763135 128.74954092 -42.71484375 110.359375 C-50.21103802 90.7644599 -51.13936364 67.88346134 -44 48 C-43.57589844 46.80632812 -43.15179688 45.61265625 -42.71484375 44.3828125 C-36.99765766 29.82707967 -18.47490737 0 0 0 Z " fill="#000000" transform="translate(352,33)"/>
</svg>
