<?xml version="1.0" encoding="UTF-8"?>
<svg version="1.1" xmlns="http://www.w3.org/2000/svg" width="512" height="512">
<path d="M0 0 C1.09094247 -0.00782324 2.18188494 -0.01564648 3.30588627 -0.02370679 C4.50907725 -0.01701463 5.71226824 -0.01032246 6.95191956 -0.00342751 C8.22643447 -0.00810748 9.50094938 -0.01278745 10.81408596 -0.01760924 C14.35888716 -0.03017094 17.90344709 -0.02392557 21.44824934 -0.01465058 C25.26834748 -0.00788148 29.08840324 -0.01833066 32.90849304 -0.02659035 C40.3948612 -0.03995281 47.8811393 -0.03703879 55.36751103 -0.02835242 C61.45008793 -0.02158615 67.53263954 -0.02065457 73.61521912 -0.02392387 C74.47985918 -0.02438357 75.34449925 -0.02484327 76.23534054 -0.0253169 C77.99166275 -0.02627605 79.74798495 -0.02724869 81.50430715 -0.02823468 C97.98585293 -0.03679593 114.4673487 -0.02694292 130.94888628 -0.01083358 C145.10071994 0.00257027 159.2524798 0.00024239 173.40431213 -0.01358986 C189.82558057 -0.0296327 206.24680515 -0.03597189 222.66808033 -0.02675307 C224.41805839 -0.02579739 226.16803645 -0.02485428 227.91801453 -0.02392387 C228.77910983 -0.02346105 229.64020513 -0.02299822 230.52739424 -0.02252137 C236.60493834 -0.01992759 242.6824547 -0.02431082 248.75999451 -0.03136253 C256.16324087 -0.03976336 263.56639176 -0.03752736 270.96962714 -0.0215203 C274.74922044 -0.01361839 278.52865438 -0.01057844 282.30824661 -0.02046776 C286.39940876 -0.03101066 290.49016611 -0.01845005 294.58131409 -0.00342751 C295.78450507 -0.01011967 296.98769606 -0.01681184 298.22734737 -0.02370679 C299.86376108 -0.01197193 299.86376108 -0.01197193 301.53323364 0 C302.95075849 0.00073059 302.95075849 0.00073059 304.3969202 0.00147593 C307.20755675 0.44749624 308.05194172 1.15487586 309.76661682 3.37752342 C311.24793354 6.34015686 310.94989373 9.3661027 310.96974182 12.61580467 C310.97544189 13.33358589 310.98114197 14.05136711 310.98701477 14.79089928 C310.99646634 16.31153959 311.00299938 17.83220041 311.0068512 19.35286522 C311.01653607 21.67069731 311.04754762 23.98763467 311.07911682 26.3052578 C311.08564919 27.78376817 311.09089875 29.26228487 311.09474182 30.74080467 C311.10708862 31.43055885 311.11943542 32.12031303 311.13215637 32.83096886 C311.11217259 37.18485204 310.43196674 39.91362299 307.76661682 43.37752342 C305.15710447 44.6822796 303.23960397 44.49053914 300.32130432 44.47517967 C298.70675354 44.47034569 298.70675354 44.47034569 297.05958557 44.46541405 C295.93165588 44.45703514 294.8037262 44.44865623 293.64161682 44.44002342 C292.50595276 44.4355117 291.3702887 44.43099998 290.20021057 44.42635155 C287.38896044 44.41453957 284.57781452 44.39806849 281.76661682 44.37752342 C281.77660957 45.23171867 281.77660957 45.23171867 281.7868042 46.10317039 C281.85422987 52.14003797 281.89885123 58.17679533 281.93141174 64.2139492 C281.94631059 66.45390239 281.96663656 68.69382742 281.99293518 70.93367577 C282.19712883 88.79861844 281.54232613 106.462349 276.07911682 123.62752342 C275.82420471 124.44559471 275.5692926 125.263666 275.30665588 126.10652733 C269.39071623 144.29609807 258.67284056 162.10963122 244.05567932 174.63142967 C239.85517714 178.2739547 235.80251835 182.05445264 231.76661682 185.87752342 C227.14802421 190.25255744 222.4770097 194.53681735 217.67286682 198.70760155 C214.23948853 201.71532536 210.91335768 204.83800776 207.57936096 207.954916 C204.53893213 210.7846264 201.44617791 213.46531462 198.20411682 216.06502342 C193.06762445 220.53909288 191.1522472 225.67811077 190.20411682 232.31502342 C190.8371274 241.46654782 196.47292947 247.56120868 203.05104065 253.34383202 C204.11509207 254.26151369 205.18236575 255.1754734 206.25294495 256.08553123 C208.44140224 257.95348543 210.57113044 259.88418281 212.70411682 261.81502342 C213.50720276 262.53560936 214.3102887 263.2561953 215.13771057 263.99861717 C218.20066386 266.77029407 221.23511121 269.57155266 224.26661682 272.37752342 C231.06921012 278.67166012 237.89383318 284.93472469 244.95411682 290.94002342 C259.94283951 304.10012194 270.20426326 322.23675024 276.07911682 341.12752342 C276.42462585 342.21335716 276.42462585 342.21335716 276.77711487 343.32112694 C281.71065482 360.30879864 282.1800868 377.57576702 281.95411682 395.12752342 C281.93901568 397.20433644 281.92533705 399.2811603 281.9131012 401.35799217 C281.88058794 406.36477884 281.82911792 411.37102505 281.76661682 416.37752342 C282.50299377 416.35133934 283.23937073 416.32515526 283.99806213 416.29817772 C287.33736299 416.19418656 290.67632338 416.12918932 294.01661682 416.06502342 C295.17548401 416.02312889 296.3343512 415.98123436 297.52833557 415.9380703 C298.64337463 415.92195702 299.7584137 415.90584373 300.90724182 415.88924217 C302.44686584 415.84996605 302.44686584 415.84996605 304.01759338 415.80989647 C306.76661682 416.37752342 306.76661682 416.37752342 309.1018219 418.43733788 C311.12412458 422.008916 311.32869707 424.91255283 311.26271057 428.90877342 C311.2641658 429.6223098 311.26562103 430.33584618 311.26712036 431.07100487 C311.26546655 432.57377281 311.25396323 434.0765586 311.23316956 435.57918358 C311.20420215 437.8707732 311.21257183 440.16004788 311.2256012 442.45174217 C311.21936313 443.91659709 311.21097164 445.38144475 311.20021057 446.84627342 C311.20314621 447.52661644 311.20608185 448.20695946 311.20910645 448.90791893 C311.12436393 453.21158723 310.38740783 455.94666973 307.76661682 459.37752342 C305.24438388 460.63863989 303.51462438 460.50636359 300.69030952 460.5117445 C299.06825763 460.51843127 299.06825763 460.51843127 297.41343701 460.52525312 C296.2157972 460.52506875 295.01815739 460.52488439 293.78422546 460.52469444 C291.88704374 460.53020947 291.88704374 460.53020947 289.95153511 460.53583592 C286.4292868 460.54587204 282.90705553 460.54957529 279.38479495 460.55222523 C275.59057307 460.55612344 271.79636474 460.56570202 268.00215149 460.5744381 C258.83418505 460.59421481 249.66621749 460.60426964 240.49823505 460.61316589 C236.18422073 460.61754627 231.87020765 460.62291367 227.55619431 460.62815475 C213.22168546 460.64516722 198.88717738 460.65966283 184.55265999 460.6669035 C180.83149845 460.66881348 177.11033693 460.6707338 173.38917542 460.67268944 C172.46426508 460.67317318 171.53935475 460.67365692 170.58641683 460.67415532 C155.59333324 460.682461 140.60032929 460.7078069 125.60728051 460.74027012 C110.22546746 460.7733045 94.84369495 460.79134892 79.46184623 460.79454774 C70.8208948 460.79671605 62.18005955 460.80551169 53.53914261 460.83100891 C46.18237658 460.85266643 38.82575495 460.8607908 31.46896066 460.85104213 C27.71349417 460.84648314 23.95832592 460.84847567 20.20289993 460.86780357 C16.13604628 460.88855414 12.06986023 460.87849622 8.00297546 460.86527061 C6.21320791 460.88172448 6.21320791 460.88172448 4.38728344 460.89851075 C3.30070002 460.88992986 2.21411659 460.88134897 1.0946064 460.87250805 C0.15550301 460.87348486 -0.78360039 460.87446167 -1.75116146 460.87546808 C-5.02760964 460.21819808 -6.21601361 458.99877932 -8.23338318 456.37752342 C-8.61899271 453.45458437 -8.77155206 450.9172657 -8.72947693 447.99861717 C-8.73093216 447.19013832 -8.73238739 446.38165947 -8.73388672 445.54868126 C-8.73222978 443.84323578 -8.72069129 442.13777504 -8.69993591 440.43245506 C-8.67094287 437.82040115 -8.67933755 435.21037265 -8.69236755 432.59822655 C-8.686131 430.94001355 -8.6777407 429.28180696 -8.66697693 427.62361717 C-8.66991257 426.84231941 -8.67284821 426.06102165 -8.6758728 425.2560482 C-8.62441908 422.30439387 -8.57705189 419.96564268 -7.06639099 417.38045311 C-4.45693682 415.95269103 -2.43682832 416.03939989 0.52833557 416.08455467 C1.64659729 416.09422264 2.76485901 416.10389061 3.91700745 416.11385155 C5.08425354 416.13898827 6.25149963 416.16412498 7.45411682 416.19002342 C8.63296448 416.20355858 9.81181213 416.21709373 11.02638245 416.23103905 C13.94025093 416.26643016 16.85320627 416.31580533 19.76661682 416.37752342 C19.75090637 415.15460594 19.73519592 413.93168846 19.7190094 412.67171288 C19.66367816 408.02529866 19.62990174 403.37891174 19.6018219 398.73225975 C19.58696541 396.74164965 19.56667466 394.75107085 19.54029846 392.76058006 C19.08228165 357.24182568 26.2049997 322.6797915 51.56739807 296.31502342 C58.47657815 289.2846856 65.47659018 282.39566052 72.94386292 275.95735741 C75.69204718 273.57542593 78.35371447 271.1038827 81.01661682 268.62752342 C82.13758459 267.58962693 83.25868147 266.55186986 84.37989807 265.51424217 C84.94015686 264.99523338 85.50041565 264.47622459 86.07765198 263.94148827 C88.782579 261.43675244 91.49137667 258.93629413 94.20411682 256.44002342 C95.13095276 255.58537498 96.0577887 254.73072655 97.01271057 253.85017967 C98.95787102 252.1036739 100.90076115 250.45570817 102.93458557 248.82283592 C107.3842091 244.98081616 110.17466073 240.70277241 111.21583557 234.85408592 C111.53107177 227.78844702 109.62240639 222.65662693 105.00099182 217.35017967 C101.27549233 213.5293426 97.27609544 210.03319415 93.23146057 206.55721092 C89.84676914 203.56409235 86.56106153 200.46931365 83.26661682 197.37752342 C77.59215674 192.04417312 77.59215674 192.04417312 71.76661682 186.87752342 C49.10293756 167.28856651 31.42627955 146.82349426 23.89161682 117.25252342 C23.70051331 116.50277245 23.50940979 115.75302147 23.31251526 114.98055077 C19.57172167 99.00240609 19.51019663 83.19098455 19.64161682 66.87752342 C19.65167359 64.68612129 19.66079464 62.49471466 19.66896057 60.30330467 C19.6907444 54.9946108 19.72400529 49.6860889 19.76661682 44.37752342 C18.7529303 44.39323387 18.7529303 44.39323387 17.71876526 44.4092617 C14.6514204 44.45088318 11.58413504 44.47686915 8.51661682 44.50252342 C7.45314026 44.51928123 6.3896637 44.53603905 5.29396057 44.55330467 C3.75675354 44.56297264 3.75675354 44.56297264 2.18849182 44.57283592 C0.77455139 44.58854637 0.77455139 44.58854637 -0.66795349 44.6045742 C-3.36844924 44.36556954 -4.96631183 43.84116524 -7.23338318 42.37752342 C-8.83209887 39.18009204 -8.41759999 35.70693227 -8.43650818 32.19392967 C-8.44220825 31.38262093 -8.44790833 30.57131218 -8.45378113 29.73541832 C-8.46323304 28.01807015 -8.46976587 26.30070383 -8.47361755 24.58333397 C-8.48333205 21.95386293 -8.51435636 19.32517059 -8.54588318 16.6958828 C-8.55241235 15.02856974 -8.55766316 13.36125108 -8.56150818 11.69392967 C-8.57385498 10.9063578 -8.58620178 10.11878593 -8.59892273 9.30734825 C-8.57668601 3.8681201 -8.57668601 3.8681201 -7.0381918 1.66953599 C-4.59408514 -0.08013236 -2.99495909 0.00154359 0 0 Z M34.76661682 44.37752342 C33.20058783 83.33651104 33.20058783 83.33651104 40.45411682 121.62752342 C40.70830383 122.35656883 40.96249084 123.08561424 41.22438049 123.83675194 C48.89162624 144.96585448 63.56031833 161.05599209 80.51271057 175.40877342 C83.84098415 178.31596559 87.0451428 181.35296293 90.26661682 184.37752342 C96.00696291 189.76947988 96.00696291 189.76947988 101.89161682 195.00252342 C102.47942932 195.51685936 103.06724182 196.0311953 103.67286682 196.56111717 C104.86158183 197.5923718 106.0541957 198.61927412 107.25880432 199.63191795 C116.67989396 207.59063775 124.8307334 216.05212104 126.00489807 229.00642967 C126.31750202 241.36251203 122.38351312 250.20013708 114.10646057 259.17830467 C110.62171973 262.75830039 106.90711565 266.04245175 103.12599182 269.30330467 C100.16797383 271.90381386 97.279675 274.57481758 94.39161682 277.25252342 C90.54060993 280.82184343 86.67784182 284.37398311 82.76661682 287.87752342 C81.09941195 289.3769252 79.43278431 290.87696897 77.76661682 292.37752342 C77.26130432 292.83095116 76.75599182 293.28437889 76.23536682 293.75154686 C51.6305121 315.88704417 39.48731687 338.33262309 34.76661682 371.37752342 C34.76661682 386.22752342 34.76661682 401.07752342 34.76661682 416.37752342 C111.32661682 416.37752342 187.88661682 416.37752342 266.76661682 416.37752342 C266.87273554 352.36553212 266.87273554 352.36553212 234.70411682 302.06502342 C230.59230378 298.01432242 226.41753573 294.07072138 222.01271057 290.33846092 C218.73078663 287.47319863 215.56871073 284.48307592 212.39161682 281.50252342 C208.13060027 277.50903107 203.86244508 273.52904975 199.51661682 269.62752342 C198.74446838 268.93271873 197.97231995 268.23791405 197.17677307 267.52205467 C195.42583934 265.96409257 193.66089519 264.42183186 191.88771057 262.88924217 C182.67486523 254.80500106 177.07492957 247.33346431 175.44630432 234.94002342 C174.98450751 225.33464985 178.21223863 216.1787799 184.39161682 208.85408592 C189.92146548 203.08776348 195.83770592 197.72772567 201.76661682 192.37752342 C203.12206604 191.15162498 203.12206604 191.15162498 204.50489807 189.90096092 C206.08180352 188.48148793 207.66118978 187.06476553 209.24317932 185.65096092 C212.84094469 182.40963051 216.39006752 179.11651745 219.94190979 175.82503319 C223.27009069 172.74511393 226.62870418 169.70442396 230.01661682 166.69002342 C253.79124585 145.26588446 265.06807288 119.57961978 267.45411682 87.94002342 C267.92841287 73.42656434 267.76661682 58.89873038 267.76661682 44.37752342 C190.87661682 44.37752342 113.98661682 44.37752342 34.76661682 44.37752342 Z " fill="#000000" transform="translate(106.23338317871094,25.62247657775879)"/>
<path d="M0 0 C0.93199219 0.45246094 1.86398437 0.90492188 2.82421875 1.37109375 C24.13671898 12.33945161 40.11602285 31.50965767 48 54 C51.25267697 64.2344721 54.21534941 75.16846489 53 86 C51.27310955 89.28931514 50.5579199 89.8140267 47 91 C44.64004677 91.09893351 42.27733362 91.13505111 39.91531372 91.14044189 C38.82645207 91.14489858 38.82645207 91.14489858 37.71559322 91.1494453 C35.27669247 91.15813544 32.83784079 91.1596408 30.39892578 91.16113281 C28.65292251 91.16576072 26.90692026 91.17078534 25.16091919 91.17617798 C20.41297904 91.18930558 15.66505303 91.1957475 10.91709757 91.20018864 C7.95195099 91.20311844 4.98680829 91.20722305 2.02166367 91.21169281 C-7.25227016 91.22536794 -16.52619514 91.23503484 -25.80013835 91.2388947 C-36.51196987 91.24337733 -47.2236739 91.26093467 -57.93546665 91.2898953 C-66.21154794 91.3114955 -74.48759332 91.32159807 -82.76370251 91.32293582 C-87.70857524 91.32398493 -92.65332814 91.32991537 -97.59817123 91.34775543 C-102.24880629 91.36420766 -106.89923105 91.36640551 -111.5498848 91.35761642 C-113.2571036 91.35684455 -114.96433358 91.3612085 -116.67152405 91.37107468 C-119.00171653 91.38375197 -121.33115944 91.37794085 -123.66134644 91.36749268 C-125.61753812 91.36969252 -125.61753812 91.36969252 -127.61324883 91.3719368 C-131.26436906 90.97096669 -133.16487091 90.31585744 -136 88 C-140.19413322 70.94385824 -131.62601359 49.51654038 -123 35 C-108.88749413 13.67267371 -87.76033999 -1.95760938 -62.60424805 -7.53076172 C-41.45333825 -11.76056635 -19.40069786 -9.51994187 0 0 Z " fill="#000000" transform="translate(299,337)"/>
<path d="M0 0 C2 2.1875 2 2.1875 3 5 C1.7056012 21.29157111 -20.50437213 37.31552182 -32.08178711 47.2956543 C-35.36870608 50.21610502 -38.42285159 53.36180662 -41.5 56.5 C-49.311094 64.39535194 -49.311094 64.39535194 -53.125 67.625 C-64.06040862 76.97417352 -73.00020353 85.42962258 -76.4375 99.8125 C-77.3166156 103.24153655 -78.05627962 105.69619311 -80.625 108.1875 C-84.95609789 110.51345998 -88.18732108 110.8095264 -93 110 C-97.3038224 108.22233423 -98.86152311 106.04701003 -101 102 C-101.52453224 100.07936427 -101.98109535 98.13911851 -102.375 96.1875 C-104.43556593 87.56482411 -107.98205207 82.50632993 -114.76171875 76.9140625 C-118.14793279 74.01834718 -121.20612543 70.81533064 -124.3125 67.625 C-126.42141309 65.5651314 -128.54974373 63.63867919 -130.78125 61.71875 C-136.00881167 57.18754269 -140.80008276 52.24909606 -145.64453125 47.31640625 C-149.66845458 43.24834482 -153.77759393 39.37024424 -158.11181641 35.63476562 C-160.96325707 33.16602414 -163.72065895 30.61544029 -166.4375 28 C-166.96537109 27.51789063 -167.49324219 27.03578125 -168.03710938 26.5390625 C-170.80664976 23.85129288 -171.98504075 22.05824298 -172.953125 18.2890625 C-173 15 -173 15 -171.3125 12.375 C-155.34742023 -0.92923314 -127.25456138 -1.41254574 -107.72753906 0.18603516 C-97.24131236 1.40438284 -87.08576805 4.51011182 -76.9909668 7.48657227 C-53.74596196 14.2970326 -35.1980262 13.35385563 -13.65869141 1.91040039 C-8.7183042 -0.61198408 -5.57552779 -1.63776678 0 0 Z " fill="#000000" transform="translate(346,149)"/>
<path d="M0 0 C2.45811625 3.68717438 2.31118164 5.64345704 2 10 C0 13 0 13 -3.3125 13.9375 C-7 14 -7 14 -9.9375 12.5 C-12 10 -12 10 -12.5 6.4375 C-12 3 -12 3 -10.625 1.125 C-6.85646767 -1.48398392 -4.44638807 -0.95279744 0 0 Z " fill="#000000" transform="translate(262,275)"/>
<path d="M0 0 C2.48038907 3.7205836 2.46337203 5.59796571 2 10 C0.4375 12.5 0.4375 12.5 -2 14 C-5.46954545 13.93913078 -7.91947278 13.6274029 -10.9375 11.875 C-12.69297303 8.77710642 -12.48723574 6.47155466 -12 3 C-8.32585541 -1.4535086 -5.40458684 -1.52960005 0 0 Z " fill="#000000" transform="translate(262,302)"/>
</svg>
